<svg xmlns="http://www.w3.org/2000/svg" viewBox="0 0 32 32" fill="currentColor">
  <title>ellipsis</title>
  <path d="M17.6,13.82a.57.57,0,0,1,.57.57V17.6a.57.57,0,0,1-.57.57H14.4a.57.57,0,0,1-.57-.57V14.4a.57.57,0,0,1,.57-.57H17.6m0-1.32H14.4a1.9,1.9,0,0,0-1.9,1.9V17.6a1.9,1.9,0,0,0,1.9,1.9H17.6a1.9,1.9,0,0,0,1.9-1.9V14.4a1.9,1.9,0,0,0-1.9-1.9Zm10.5,1.32a.57.57,0,0,1,.57.57V17.6a.57.57,0,0,1-.57.57H24.9a.57.57,0,0,1-.57-.57V14.4a.57.57,0,0,1,.57-.57H28.1m0-1.32H24.9A1.9,1.9,0,0,0,23,14.4V17.6a1.9,1.9,0,0,0,1.9,1.9H28.1A1.9,1.9,0,0,0,30,17.6V14.4a1.9,1.9,0,0,0-1.9-1.9Zm-21,1.32a.57.57,0,0,1,.57.57V17.6a.57.57,0,0,1-.57.57H3.9a.57.57,0,0,1-.57-.57V14.4a.57.57,0,0,1,.57-.57H7.1m0-1.32H3.9A1.9,1.9,0,0,0,2,14.4V17.6a1.9,1.9,0,0,0,1.9,1.9H7.1A1.9,1.9,0,0,0,9,17.6V14.4a1.9,1.9,0,0,0-1.9-1.9Z"/>
</svg>
