<svg xmlns="http://www.w3.org/2000/svg" viewBox="0 0 32 32" fill="currentColor">
  <title>blue ribbon</title>
  <path d="M27.1,27l-3.45-8a7.7,7.7,0,0,1,.95-.73,4.94,4.94,0,0,0,2-2.15,4.94,4.94,0,0,0-.08-3,6.6,6.6,0,0,1-.23-1.31,6.77,6.77,0,0,1,.17-1.28,5.15,5.15,0,0,0-.08-3.15,5.16,5.16,0,0,0-2.29-2.17,6.74,6.74,0,0,1-1.06-.74,6.59,6.59,0,0,1-.82-1,4.94,4.94,0,0,0-2.15-2,4.93,4.93,0,0,0-3,.08,6.6,6.6,0,0,1-1.31.23,6.57,6.57,0,0,1-1.28-.17,5.15,5.15,0,0,0-3.15.08h0A5.16,5.16,0,0,0,9.19,3.92,6.77,6.77,0,0,1,8.46,5a6.59,6.59,0,0,1-1,.82A4.94,4.94,0,0,0,5.36,8a4.94,4.94,0,0,0,.08,3,6.6,6.6,0,0,1,.23,1.31,6.75,6.75,0,0,1-.17,1.28,5.16,5.16,0,0,0,.08,3.15,5.15,5.15,0,0,0,2.29,2.17l.43.27L4.9,27a.7.7,0,0,0,.83,1L9.6,26.9l1.88,3.53a.7.7,0,0,0,.62.37h0a.7.7,0,0,0,.62-.42L16,22.83l3.26,7.54a.7.7,0,0,0,.62.42h0a.71.71,0,0,0,.62-.37L22.4,26.9,26.26,28a.7.7,0,0,0,.83-1ZM6.88,16.1a4,4,0,0,1,0-2.32,7.84,7.84,0,0,0,.19-1.57,7.68,7.68,0,0,0-.27-1.62,3.81,3.81,0,0,1-.14-2.13A3.81,3.81,0,0,1,8.21,7a7.67,7.67,0,0,0,1.28-1,7.83,7.83,0,0,0,.91-1.3,4,4,0,0,1,1.54-1.73h0a4,4,0,0,1,2.32,0,8,8,0,0,0,1.57.19,7.68,7.68,0,0,0,1.62-.27,3.81,3.81,0,0,1,2.13-.14,3.81,3.81,0,0,1,1.49,1.53,7.68,7.68,0,0,0,1,1.28,7.85,7.85,0,0,0,1.3.91A4,4,0,0,1,25.12,8a4,4,0,0,1,0,2.32,7.85,7.85,0,0,0-.19,1.57,7.68,7.68,0,0,0,.27,1.62,3.81,3.81,0,0,1,.14,2.13,3.81,3.81,0,0,1-1.53,1.49,7.67,7.67,0,0,0-1.28,1,5.55,5.55,0,0,0-.59.78l0,0-.3.49A4.87,4.87,0,0,1,20.33,21a1.83,1.83,0,0,1-.27.15,2.11,2.11,0,0,1-.8.17,7.28,7.28,0,0,1-1.51-.18L17,21h0l-.23,0-.16,0h-.44a4.44,4.44,0,0,0-.53,0h0l-.09,0-.39.07-.12,0-.47.11a3.81,3.81,0,0,1-2.13.14,3.81,3.81,0,0,1-1.49-1.53,10.68,10.68,0,0,0-.72-1l0,0L10,18.67l-.12-.12h0a7.92,7.92,0,0,0-1.28-.9A4,4,0,0,1,6.88,16.1ZM12,28.47l-1.45-2.73a.71.71,0,0,0-.62-.37l-.19,0-3,.82,2.63-6.08.11.15.06.09.14.2,0,.07a4.94,4.94,0,0,0,2.15,2h0l.31.1.11,0,.2,0,.13,0,.18,0h.28l.37,0h0l.42-.06.09,0,.36-.07h.11Zm10.2-3.08a.71.71,0,0,0-.81.35L20,28.47l-2.57-6,.08,0a5.16,5.16,0,0,0,3.15-.08,3.21,3.21,0,0,0,.37-.19l.11-.07.22-.16.11-.1.18-.16.1-.11.16-.18.09-.11.16-.2.07-.1.16-.23,0-.07.26-.42,2.53,5.86Z"/>
</svg>
