<svg xmlns="http://www.w3.org/2000/svg" viewBox="0 0 32 32" fill="currentColor">
  <title>fill in</title>
  <path d="M29.74,2.26a4.32,4.32,0,0,0-6.1,0l-.85.85L21.19,4.71a.66.66,0,0,0-.31.31L3.75,22.15l-.09.11h0a.71.71,0,0,0-.07.14v0L1,30.05a.72.72,0,0,0,.91.91l7.62-2.54h0l.13-.06h0l.11-.09L27.13,11h0l1.76-1.76.85-.85a4.31,4.31,0,0,0,0-6.1Zm-8.2,4.13,4.07,4.07L9.34,26.72,5.28,22.66ZM2.85,29.14,4.57,24,8,27.43ZM26.62,9.44,22.56,5.38l.75-.75L27.37,8.7Zm2.1-2.1-.34.34L24.32,3.62l.34-.34a2.87,2.87,0,0,1,4.07,4.07Z"/>
</svg>
