<svg xmlns="http://www.w3.org/2000/svg" viewBox="0 0 32 32" fill="currentColor">
  <title>credit card</title>
  <path d="M28.26,6.11H3.74A2.54,2.54,0,0,0,1.2,8.65v14.7a2.54,2.54,0,0,0,2.54,2.54H28.26a2.54,2.54,0,0,0,2.54-2.54V8.65A2.54,2.54,0,0,0,28.26,6.11Zm1.13,17.24a1.13,1.13,0,0,1-1.13,1.13H3.74a1.13,1.13,0,0,1-1.13-1.13V14.61H29.39Zm0-10.15H2.61V11H29.39Zm0-3.64H2.61V8.65A1.13,1.13,0,0,1,3.74,7.52H28.26a1.13,1.13,0,0,1,1.13,1.13Zm-24.88,8a.7.7,0,0,1,.7-.7H13.3a.7.7,0,0,1,0,1.41H5.22A.7.7,0,0,1,4.51,17.55Zm0,3.64a.7.7,0,0,1,.7-.7H13.3a.7.7,0,0,1,0,1.41H5.22A.7.7,0,0,1,4.51,21.19Z"/>
</svg>
