<svg xmlns="http://www.w3.org/2000/svg" viewBox="0 0 32 32">
  <title>icon-buildings</title>
  <path d="M16.16,1h-15V31H30.84V9H16.16V1ZM2.49,29.67V2.33H14.84V29.67Zm13.67,0V10.33H29.51V29.67ZM13.44,4.79H9.77V8.45H11.1V6.11h2.34V4.79Zm-5.89,0H3.89V8.45H5.21V6.11H7.55V4.79Zm20.56,7.5H24.45V16h1.33V13.61h2.34V12.29Zm-6.89,0H17.56V16h1.33V13.61h2.34V12.29Zm-7.79,0H9.77V16H11.1V13.61h2.34V12.29Zm-5.89,0H3.89V16H5.21V13.61H7.55V12.29Zm20.56,7.5H24.45v3.66h1.33V21.11h2.34V19.79Zm-6.89,0H17.56v3.66h1.33V21.11h2.34V19.79Zm-7.79,0H9.77v3.66H11.1V21.11h2.34V19.79Zm-5.89,0H3.89v3.66H5.21V21.11H7.55V19.79Z"/>
</svg>
