<svg xmlns="http://www.w3.org/2000/svg" viewBox="0 0 32 32">
  <title>icon-cloud-upload</title>
  <path d="M16.7,15.28V28.69a.7.7,0,1,1-1.41,0V15.28L13.68,16.9a.7.7,0,1,1-1-1l2.82-2.82.11-.09.05,0,.07,0,.07,0,.06,0a.71.71,0,0,1,.28,0l.06,0,.07,0,.07,0,.05,0,.11.09,2.82,2.82a.7.7,0,1,1-1,1Zm6.06-9a8,8,0,0,0-1,.06,9.87,9.87,0,0,0-17.59,6A5.28,5.28,0,0,0,6.48,22.34h6.7a.7.7,0,0,0,0-1.41H6.48a3.87,3.87,0,0,1-1.31-7.52.71.71,0,0,0,.47-.68v-.08c0-.06,0-.11,0-.17a8.46,8.46,0,0,1,15.3-5,.71.71,0,0,0,.69.28,6.7,6.7,0,0,1,1.14-.1,6.63,6.63,0,0,1,0,13.25H18.82a.7.7,0,0,0,0,1.41h3.95a8,8,0,0,0,0-16.07Z"/>
</svg>
