<svg xmlns="http://www.w3.org/2000/svg" viewBox="0 0 32 32" fill="currentColor">
  <title>pinterest</title>
  <path d="M25.77,10.33A11,11,0,0,1,27.29,16a11,11,0,0,1-1.51,5.67,11.23,11.23,0,0,1-4.11,4.11,11.29,11.29,0,0,1-8.87,1,9.08,9.08,0,0,0,1.15-2.41q.13-.5.79-3.1a2.45,2.45,0,0,0,1.07,1,3.49,3.49,0,0,0,1.68.42,5.29,5.29,0,0,0,3.17-1,6.53,6.53,0,0,0,2.16-2.77,9.89,9.89,0,0,0,.76-4,6.05,6.05,0,0,0-.87-3.14,6.62,6.62,0,0,0-2.54-2.39,7.56,7.56,0,0,0-3.75-.93,9.41,9.41,0,0,0-2.88.43,7.52,7.52,0,0,0-2.27,1.13,7.71,7.71,0,0,0-1.6,1.62,6.68,6.68,0,0,0-1,1.9,6.4,6.4,0,0,0-.32,2A5.88,5.88,0,0,0,9,18.25a3.32,3.32,0,0,0,1.72,1.63c.29.12.48,0,.56-.29l.12-.46c.06-.23.1-.38.12-.44a.67.67,0,0,0-.16-.63,3.34,3.34,0,0,1-.75-2.22,5.35,5.35,0,0,1,5.55-5.41,4.76,4.76,0,0,1,3.46,1.21,4.17,4.17,0,0,1,1.24,3.13,8.38,8.38,0,0,1-1,4.25,3,3,0,0,1-2.58,1.75,1.8,1.8,0,0,1-1.44-.64,1.67,1.67,0,0,1-.34-1.54q.12-.51.39-1.37t.44-1.51a4.57,4.57,0,0,0,.17-1.11,1.86,1.86,0,0,0-.4-1.22,1.38,1.38,0,0,0-1.13-.48,1.88,1.88,0,0,0-1.54.84,3.37,3.37,0,0,0-.63,2.09,3.92,3.92,0,0,0,.37,1.79l-1.46,6.14a9.69,9.69,0,0,0-.19,2.6,11.25,11.25,0,0,1-4.89-4.13A10.93,10.93,0,0,1,4.71,16a11,11,0,0,1,1.51-5.67,11.23,11.23,0,0,1,4.11-4.11A11,11,0,0,1,16,4.72a11,11,0,0,1,5.66,1.51A11.25,11.25,0,0,1,25.77,10.33Z"/>
</svg>
