<svg xmlns="http://www.w3.org/2000/svg" viewBox="0 0 32 32">
  <title>icon-quote</title>
  <path d="M30.69,7.63H31l-.67-2.9h-.2c-8,0-13.13,3-15.12,9a6.92,6.92,0,0,0-.94-.85c-2-1.5-4.65-1.33-6.11-1.07.9-1.38,3.45-4.14,9.46-4.14h.31l-.67-2.9h-.2C5.17,4.72,1,11.67,1,18.17c0,5.62,3.2,9.11,8.36,9.11a7.5,7.5,0,0,0,6.38-3.47,7.82,7.82,0,0,0,6.89,3.47,7.9,7.9,0,0,0,7.82-8.13,7.9,7.9,0,0,0-3.11-6.31,7.41,7.41,0,0,0-6-1.14C22.37,10.15,25,7.63,30.69,7.63ZM18.95,13.72c1.77-1,5.62-1.43,7.65.1a6.73,6.73,0,0,1,2.62,5.33,6.57,6.57,0,0,1-6.59,6.9,6.48,6.48,0,0,1-6.36-3.83,8.43,8.43,0,0,1-.54-1.72,7.33,7.33,0,0,1-.51,1.72,6.22,6.22,0,0,1-5.86,3.83c-4.47,0-7.13-2.95-7.13-7.89,0-2,.67-12,13.86-12.21l.11.48c-7.88.42-9.74,5.23-10.51,7.29,4.49-1.81,8.5-.28,9.86,3.4.61-5.34,4.05-11,13.81-11.17l.11.48C21.58,6.85,19.53,11.69,18.95,13.72Z"/>
</svg>
