<svg xmlns="http://www.w3.org/2000/svg" viewBox="0 0 32 32" fill="currentColor">
  <title>heart</title>
  <path d="M16,29.3,3.4,16.71a8,8,0,0,1-1.75-2.63A8,8,0,0,1,1,11,7.89,7.89,0,0,1,2.13,7a8,8,0,0,1,10-3.41,7.93,7.93,0,0,1,2.63,1.76L16,6.58l1.23-1.23A8,8,0,0,1,22.91,3h0a7.9,7.9,0,0,1,4,1.08A8,8,0,0,1,29.87,7,7.89,7.89,0,0,1,31,11a8.05,8.05,0,0,1-.6,3,7.94,7.94,0,0,1-1.75,2.63ZM9.09,4.39a6.52,6.52,0,0,0-3.33.89A6.65,6.65,0,0,0,3.34,7.7,6.51,6.51,0,0,0,2.45,11a6.64,6.64,0,0,0,.5,2.52,6.55,6.55,0,0,0,1.45,2.17L16,27.32,27.61,15.72a6.54,6.54,0,0,0,1.45-2.17,6.66,6.66,0,0,0,.5-2.52,6.51,6.51,0,0,0-.89-3.33,6.65,6.65,0,0,0-2.42-2.42,6.52,6.52,0,0,0-3.33-.89h0a6.64,6.64,0,0,0-2.51.5,6.55,6.55,0,0,0-2.17,1.45L16,8.56,13.78,6.33a6.54,6.54,0,0,0-2.17-1.45A6.68,6.68,0,0,0,9.09,4.39Z"/>
</svg>
