<svg xmlns="http://www.w3.org/2000/svg" viewBox="0 0 32 32">
  <title>icon-calculator</title>
  <path d="M26.57,30.8H5.43a.7.7,0,0,1-.7-.7V1.9a.7.7,0,0,1,.7-.7H26.57a.7.7,0,0,1,.7.7V30.1A.7.7,0,0,1,26.57,30.8ZM6.13,29.39H25.87V2.61H6.13ZM23.75,9.59H8.25a.7.7,0,0,1-.7-.7V4.72a.7.7,0,0,1,.7-.7H23.75a.7.7,0,0,1,.7.7V8.88A.7.7,0,0,1,23.75,9.59ZM9,8.18H23V5.43H9Zm14.8,7.54H20.37a.7.7,0,0,1-.7-.7V11.63a.7.7,0,0,1,.7-.7h3.38a.7.7,0,0,1,.7.7V15A.7.7,0,0,1,23.75,15.72Zm-2.68-1.41h2v-2h-2Zm-9.45,1.41H8.25a.7.7,0,0,1-.7-.7V11.63a.7.7,0,0,1,.7-.7h3.38a.7.7,0,0,1,.7.7V15A.7.7,0,0,1,11.63,15.72ZM9,14.31h2v-2H9Zm8.74,1.41H14.31a.7.7,0,0,1-.7-.7V11.63a.7.7,0,0,1,.7-.7h3.38a.7.7,0,0,1,.7.7V15A.7.7,0,0,1,17.69,15.72ZM15,14.31h2v-2H15Zm8.74,7.61H20.37a.7.7,0,0,1-.7-.7V17.83a.7.7,0,0,1,.7-.7h3.38a.7.7,0,0,1,.7.7v3.38A.7.7,0,0,1,23.75,21.92Zm-2.68-1.41h2v-2h-2Zm-9.45,1.41H8.25a.7.7,0,0,1-.7-.7V17.83a.7.7,0,0,1,.7-.7h3.38a.7.7,0,0,1,.7.7v3.38A.7.7,0,0,1,11.63,21.92ZM9,20.51h2v-2H9Zm8.74,1.41H14.31a.7.7,0,0,1-.7-.7V17.83a.7.7,0,0,1,.7-.7h3.38a.7.7,0,0,1,.7.7v3.38A.7.7,0,0,1,17.69,21.92ZM15,20.51h2v-2H15Zm8.74,7.61H20.37a.7.7,0,0,1-.7-.7V24a.7.7,0,0,1,.7-.7h3.38a.7.7,0,0,1,.7.7v3.38A.7.7,0,0,1,23.75,28.13Zm-2.68-1.41h2v-2h-2Zm-9.45,1.41H8.25a.7.7,0,0,1-.7-.7V24a.7.7,0,0,1,.7-.7h3.38a.7.7,0,0,1,.7.7v3.38A.7.7,0,0,1,11.63,28.13ZM9,26.72h2v-2H9Zm8.74,1.41H14.31a.7.7,0,0,1-.7-.7V24a.7.7,0,0,1,.7-.7h3.38a.7.7,0,0,1,.7.7v3.38A.7.7,0,0,1,17.69,28.13ZM15,26.72h2v-2H15Z"/>
</svg>
