<svg xmlns="http://www.w3.org/2000/svg" viewBox="0 0 32 32">
  <title>icon-graduation-cap</title>
  <path d="M30.08,12,16.92,6.39a2,2,0,0,0-1.76,0L1.92,12c-.51.22-.51.57,0,.78l2.17.92v6.55a1.2,1.2,0,0,0-.1,2L3,26H6.5l-1-3.74a1.2,1.2,0,0,0-.1-2v-6l2,.86h-.1V20.3c0,1.64,3.37,4.78,8.66,4.78,5.69,0,8.66-3.11,8.66-4.78V15.13h-.09l5.51-2.35C30.59,12.57,30.59,12.22,30.08,12Zm-6.74,8.3c0,.8-2.29,3.46-7.34,3.46-4.67,0-7.34-2.72-7.34-3.46V15.66l6.42,2.74a2.7,2.7,0,0,0,1.84,0l6.42-2.74Zm-6.91-3.06a1.53,1.53,0,0,1-.86,0L4.19,12.39,15.57,7.54a.92.92,0,0,1,.86,0c.26.13,11.38,4.85,11.38,4.85Z"/>
</svg>
