<svg xmlns="http://www.w3.org/2000/svg" viewBox="0 0 32 32" fill="currentColor">
  <title>visible</title>
  <path d="M17.84,14.16a2.6,2.6,0,1,1-3.68,3.68,2.6,2.6,0,1,1,3.68-3.68ZM31,16l-.21.44c-.08.17-.26.5-.55,1s-.6,1-.92,1.51-.76,1.09-1.29,1.75a24.41,24.41,0,0,1-1.66,1.88,18.44,18.44,0,0,1-2,1.76,15.79,15.79,0,0,1-2.41,1.51,14,14,0,0,1-2.78,1,12.63,12.63,0,0,1-3.14.4h0a13,13,0,0,1-4-.62A13.24,13.24,0,0,1,8.64,25a23,23,0,0,1-2.73-2.17,17,17,0,0,1-2.15-2.38c-.58-.79-1.08-1.52-1.5-2.17a16.14,16.14,0,0,1-.94-1.61L1,16l.21-.44c.08-.17.26-.51.55-1s.6-1,.92-1.51S3.45,12,4,11.31A23.82,23.82,0,0,1,5.63,9.43a18.72,18.72,0,0,1,2-1.76,16,16,0,0,1,2.41-1.52,13.57,13.57,0,0,1,2.78-1,12.8,12.8,0,0,1,3-.39H16a13,13,0,0,1,4,.62A13.14,13.14,0,0,1,23.36,7a22.84,22.84,0,0,1,2.73,2.18,17.21,17.21,0,0,1,2.15,2.4c.58.79,1.08,1.53,1.5,2.18a17.46,17.46,0,0,1,.94,1.6h0Zm-1.55-.09a16.18,16.18,0,0,0-.85-1.45c-.41-.63-.9-1.34-1.46-2.11a15.85,15.85,0,0,0-2-2.21,21.3,21.3,0,0,0-2.56-2.05,11.78,11.78,0,0,0-3-1.44,11.59,11.59,0,0,0-3.32-.55H16a11.44,11.44,0,0,0-2.81.35,12.24,12.24,0,0,0-2.5.91,14.57,14.57,0,0,0-2.2,1.39,17.18,17.18,0,0,0-1.88,1.63A22.17,22.17,0,0,0,5,12.16c-.51.64-.92,1.2-1.22,1.66s-.6.95-.87,1.43-.37.67-.44.79l0,.08a14.7,14.7,0,0,0,.85,1.46c.41.63.9,1.33,1.46,2.1a15.59,15.59,0,0,0,2,2.19,21.58,21.58,0,0,0,2.57,2,11.9,11.9,0,0,0,3,1.44,11.59,11.59,0,0,0,6.36.2,12.53,12.53,0,0,0,2.51-.91,14.46,14.46,0,0,0,2.2-1.38,17.17,17.17,0,0,0,1.88-1.63A22.84,22.84,0,0,0,27,19.87c.51-.63.92-1.19,1.22-1.65s.6-1,.88-1.43.37-.66.44-.79Zm-9.86-3.5a5.08,5.08,0,0,1,0,7.18,5.08,5.08,0,0,1-7.18,0,5.08,5.08,0,0,1,0-7.18,5.08,5.08,0,0,1,7.18,0Zm-1,6.22a3.71,3.71,0,0,0,0-5.25,3.71,3.71,0,0,0-5.25,0,3.71,3.71,0,0,0,0,5.25,3.71,3.71,0,0,0,5.25,0Z"/>
</svg>
