<svg xmlns="http://www.w3.org/2000/svg" viewBox="0 0 32 32" fill="currentColor">
  <title>briefcase</title>
  <path d="M30.1,6.47H20.22V3.68a.7.7,0,0,0-.7-.7H12.46a.7.7,0,0,0-.7.7v2.8H1.9a.7.7,0,0,0-.7.7V28.32a.7.7,0,0,0,.7.7H30.1a.7.7,0,0,0,.7-.7V7.18A.7.7,0,0,0,30.1,6.47Zm-.7,12.91-2.79.94v-.09a.7.7,0,0,0-.7-.7H24.48V7.88h4.92ZM12.29,7.88l.17,0h7.05l.17,0h3.38V19.52H21.63a.7.7,0,0,0-.7.7v.37H11.07v-.37a.7.7,0,0,0-.7-.7H8.94V7.88Zm-2.64,13v.73H6.79v-.73Zm.7,2.14a.7.7,0,0,0,.7-.7V22h9.86v.37a.7.7,0,0,0,.7.7h1.44v4.54H8.94V23.08Zm12-1.41v-.73h2.86v.73ZM13.17,4.38h5.64V6.47H13.17ZM7.53,7.88V19.52H6.09a.7.7,0,0,0-.7.7v.09l-2.78-.94V7.88Zm-4.92,13,2.78.94v.56a.7.7,0,0,0,.7.7H7.53v4.54H2.61Zm21.87,6.75V23.08H25.9a.7.7,0,0,0,.7-.7v-.56l2.79-.94v6.75Z"/>
</svg>
