<svg xmlns="http://www.w3.org/2000/svg" viewBox="0 0 32 32">
  <title>icon-free</title>
  <path d="M18.35,1.19A15,15,0,1,0,30.81,18.35,15,15,0,0,0,18.35,1.19ZM2.6,13.88A13.56,13.56,0,0,1,26.54,7.46L16.25,14.94c-1.74-1.82-2.5-3.15-2.5-4.38A2.24,2.24,0,0,1,16,8c1.59,0,2.29.84,2.29,2.71v1.18h1.6V10.49a3.76,3.76,0,0,0-3.23-4V4.6H15.3V6.51a3.93,3.93,0,0,0-3.14,4.17c0,1.67,1.11,3.3,2.82,5.17L4.62,23.38A13.52,13.52,0,0,1,2.6,13.88ZM29.4,18.12A13.56,13.56,0,0,1,5.46,24.54L16,16.91c1.74,1.85,2.38,2.9,2.38,4.59A2.21,2.21,0,0,1,16,24c-1.51,0-2.44-1.06-2.44-2.77V20H12v1.4a3.92,3.92,0,0,0,3.34,4V27.4H16.7V25.47A4.1,4.1,0,0,0,20,21.07c0-1.46-.87-3.06-2.79-5.1L27.38,8.62A13.52,13.52,0,0,1,29.4,18.12Z"/>
</svg>
