<svg xmlns="http://www.w3.org/2000/svg" viewBox="0 0 32 32">
  <title>icon-thumbsup</title>
  <path d="M30.8,18.35A3,3,0,0,0,29.7,16a3.05,3.05,0,0,0-2-5.4H21.1V4.25a3.06,3.06,0,0,0-6.13,0V10.6H1.9a.7.7,0,0,0-.7.7V30.1a.7.7,0,0,0,.7.7H27.74a3.05,3.05,0,0,0,2-5.4,3,3,0,0,0,0-4.7A3,3,0,0,0,30.8,18.35ZM2.61,12H7.3V29.39H2.61Zm25.13,4.7a1.64,1.64,0,1,1,0,3.29.7.7,0,0,0,0,1.41,1.64,1.64,0,1,1,0,3.29.7.7,0,0,0,0,1.41,1.64,1.64,0,1,1,0,3.29h-19V12h7a.7.7,0,0,0,.7-.7v-7a1.65,1.65,0,0,1,3.31,0v7a.7.7,0,0,0,.7.7h7.34a1.64,1.64,0,1,1,0,3.29.7.7,0,0,0,0,1.41Z"/>
</svg>
