<svg xmlns="http://www.w3.org/2000/svg" viewBox="0 0 32 32">
  <title>icon-sun</title>
  <path d="M16,23.75A7.75,7.75,0,1,1,23.75,16,7.76,7.76,0,0,1,16,23.75Zm0-14.1A6.34,6.34,0,1,0,22.34,16,6.35,6.35,0,0,0,16,9.66Zm.7-4.14V2A.7.7,0,1,0,15.3,2V5.52a.7.7,0,1,0,1.41,0Zm0,24.48V26.48a.7.7,0,1,0-1.41,0V30a.7.7,0,1,0,1.41,0ZM6.22,16a.7.7,0,0,0-.7-.7H2A.7.7,0,0,0,2,16.7H5.52A.7.7,0,0,0,6.22,16Zm24.49,0a.7.7,0,0,0-.7-.7H26.48a.7.7,0,0,0,0,1.41H30A.7.7,0,0,0,30.71,16ZM9.09,9.09a.7.7,0,0,0,0-1L6.6,5.6a.7.7,0,0,0-1,1L8.09,9.09a.7.7,0,0,0,1,0ZM26.4,26.4a.7.7,0,0,0,0-1l-2.49-2.49a.7.7,0,1,0-1,1L25.4,26.4a.7.7,0,0,0,1,0ZM6.6,26.4l2.49-2.49a.7.7,0,1,0-1-1L5.6,25.4a.7.7,0,1,0,1,1ZM23.91,9.09,26.4,6.6a.7.7,0,0,0-1-1L22.91,8.09a.7.7,0,1,0,1,1Z"/>
</svg>
