<svg xmlns="http://www.w3.org/2000/svg" viewBox="0 0 32 32" fill="currentColor">
  <title>arrows</title>
  <path d="M29.39,7.06V3.6L17,16l12.4,12.4V24.94a.7.7,0,1,1,1.41,0V30.1a.71.71,0,0,1,0,.14l0,.06,0,.07,0,.07,0,.05a.71.71,0,0,1-.2.2l-.05,0-.07,0-.07,0-.06,0H24.94a.7.7,0,0,1,0-1.41H28.4L16,17,3.6,29.39H7.06a.7.7,0,0,1,0,1.41H1.76l-.06,0-.07,0-.07,0-.05,0a.71.71,0,0,1-.2-.2l0-.05,0-.07,0-.07,0-.06a.71.71,0,0,1,0-.14V24.94a.7.7,0,1,1,1.41,0V28.4L15,16,2.61,3.6V7.06a.7.7,0,0,1-1.41,0V1.9a.71.71,0,0,1,0-.14l0-.06,0-.07,0-.07,0-.05a.71.71,0,0,1,.2-.2l.05,0,.07,0,.07,0,.06,0H7.06a.7.7,0,0,1,0,1.41H3.6L16,15,28.4,2.61H24.94a.7.7,0,0,1,0-1.41h5.29l.06,0,.07,0,.07,0,0,0a.71.71,0,0,1,.2.2l0,.05,0,.07,0,.07,0,.06a.71.71,0,0,1,0,.14V7.06a.7.7,0,1,1-1.41,0Z"/>
</svg>
