<svg xmlns="http://www.w3.org/2000/svg" viewBox="0 0 32 32">
  <title>icon-gear</title>
  <path d="M16,20.29A4.29,4.29,0,1,1,20.29,16,4.29,4.29,0,0,1,16,20.29Zm0-7.14A2.86,2.86,0,1,0,18.86,16,2.86,2.86,0,0,0,16,13.14ZM18.9,31H13.1a.71.71,0,0,1-.71-.71V27.76a12.23,12.23,0,0,1-2.15-.89L8.45,28.65a.71.71,0,0,1-1,0l-4.1-4.1a.71.71,0,0,1,0-1l1.79-1.79a12.24,12.24,0,0,1-.89-2.15H1.71A.71.71,0,0,1,1,18.9V13.1a.71.71,0,0,1,.71-.71H4.24a12.24,12.24,0,0,1,.89-2.15L3.35,8.45a.71.71,0,0,1,0-1l4.1-4.1a.71.71,0,0,1,1,0l1.79,1.79a12.24,12.24,0,0,1,2.15-.89V1.71A.71.71,0,0,1,13.1,1H18.9a.71.71,0,0,1,.71.71V4.24a12.24,12.24,0,0,1,2.15.89l1.79-1.79a.71.71,0,0,1,1,0l4.1,4.1a.71.71,0,0,1,0,1l-1.79,1.79a12.22,12.22,0,0,1,.89,2.15h2.53a.71.71,0,0,1,.71.71V18.9a.71.71,0,0,1-.71.71H27.76a12.23,12.23,0,0,1-.89,2.15l1.79,1.79a.71.71,0,0,1,0,1l-4.1,4.1a.71.71,0,0,1-1,0l-1.79-1.79a12.23,12.23,0,0,1-2.15.89v2.53A.71.71,0,0,1,18.9,31Zm-5.08-1.43h4.36V27.22a.71.71,0,0,1,.54-.69,10.8,10.8,0,0,0,2.8-1.16.71.71,0,0,1,.87.11l1.67,1.67,3.09-3.08-1.67-1.67a.71.71,0,0,1-.11-.87,10.81,10.81,0,0,0,1.16-2.8.71.71,0,0,1,.69-.54h2.35V13.82H27.22a.71.71,0,0,1-.69-.54,10.81,10.81,0,0,0-1.16-2.8.71.71,0,0,1,.11-.87l1.67-1.67L24.05,4.86,22.39,6.53a.71.71,0,0,1-.87.11,10.8,10.8,0,0,0-2.8-1.16.71.71,0,0,1-.54-.69V2.43H13.82V4.78a.71.71,0,0,1-.54.69,10.8,10.8,0,0,0-2.8,1.16.71.71,0,0,1-.87-.11L7.95,4.86,4.86,7.95,6.53,9.61a.71.71,0,0,1,.11.87,10.79,10.79,0,0,0-1.16,2.8.71.71,0,0,1-.69.54H2.43v4.36H4.78a.71.71,0,0,1,.69.54,10.79,10.79,0,0,0,1.16,2.8.71.71,0,0,1-.11.87L4.86,24.05l3.09,3.08,1.67-1.67a.71.71,0,0,1,.87-.11,10.8,10.8,0,0,0,2.8,1.16.71.71,0,0,1,.54.69Z"/>
</svg>
