<svg xmlns="http://www.w3.org/2000/svg" viewBox="0 0 32 32" fill="currentColor">
  <title>googleplus</title>
  <path d="M19.69,16.22A10,10,0,0,1,18.57,21a8.13,8.13,0,0,1-3.21,3.29,9.51,9.51,0,0,1-4.78,1.18,9.32,9.32,0,0,1-3.69-.75,9.29,9.29,0,0,1-5.05-5.05,9.45,9.45,0,0,1,0-7.39A9.29,9.29,0,0,1,6.88,7.25a9.32,9.32,0,0,1,3.69-.75A9,9,0,0,1,16.93,9l-2.58,2.47A5.23,5.23,0,0,0,10.57,10a5.67,5.67,0,0,0-2.95.8A6.09,6.09,0,0,0,5.48,19,5.91,5.91,0,0,0,7.62,21.2a5.67,5.67,0,0,0,2.95.8,6.24,6.24,0,0,0,2-.3A5,5,0,0,0,14,21a5.42,5.42,0,0,0,1-1,4.65,4.65,0,0,0,.63-1.08,4.81,4.81,0,0,0,.28-1H10.57V14.64h9A8.46,8.46,0,0,1,19.69,16.22Zm11.24-1.58v2.72H28.22v2.71H25.5V17.36H22.79V14.64H25.5V11.93h2.72v2.71Z"/>
</svg>
