<svg xmlns="http://www.w3.org/2000/svg" viewBox="0 0 32 32">
  <title>icon-cloud-download</title>
  <path d="M19.32,25.37a.7.7,0,0,1,0,1L16.5,29.19l-.11.09-.05,0-.07,0-.07,0-.06,0h-.28l-.06,0-.07,0-.07,0-.05,0-.11-.09-2.82-2.82a.7.7,0,0,1,1-1L15.3,27V13.58a.7.7,0,0,1,1.41,0V27l1.62-1.62A.7.7,0,0,1,19.32,25.37Zm3.45-19.1a8,8,0,0,0-1,.06,9.87,9.87,0,0,0-17.59,6A5.28,5.28,0,0,0,6.48,22.34h6.7a.7.7,0,1,0,0-1.41H6.48a3.87,3.87,0,0,1-1.31-7.52.71.71,0,0,0,.47-.68v-.08c0-.06,0-.11,0-.17a8.46,8.46,0,0,1,15.3-5,.71.71,0,0,0,.69.28,6.7,6.7,0,0,1,1.14-.1,6.63,6.63,0,0,1,0,13.25H18.82a.7.7,0,1,0,0,1.41h3.95a8,8,0,0,0,0-16.07Z"/>
</svg>
