<svg xmlns="http://www.w3.org/2000/svg" viewBox="0 0 32 32">
  <title>icon-balance</title>
  <path d="M30.81,18.69s0-.08,0-.12a.71.71,0,0,0,0-.22L26.15,4.5v0l0,0,0-.07,0,0L26,4.23h0l-.09-.08,0,0-.08,0,0,0-.08,0H6.35l-.08,0,0,0-.08,0,0,0L6,4.22H6l-.07.08,0,0,0,.07,0,0v0L1.22,18.34a.71.71,0,0,0,0,.22,5.33,5.33,0,0,0,10.65.34.7.7,0,0,0,0-.15s0,0,0-.06,0-.08,0-.12a.71.71,0,0,0,0-.22L7.49,5.43h7.72V26.57H11.14a.7.7,0,0,0,0,1.41h9.76a.7.7,0,0,0,0-1.41H16.62V5.43h7.89L20.19,18.34a.71.71,0,0,0,0,.22,5.33,5.33,0,0,0,10.65.34.7.7,0,0,0,0-.15S30.81,18.71,30.81,18.69ZM29.2,18H21.77l3.71-11.1ZM6.52,6.94,10.23,18H2.8Zm0,15.54a3.93,3.93,0,0,1-3.82-3h7.64A3.93,3.93,0,0,1,6.52,22.49Zm19,0a3.93,3.93,0,0,1-3.82-3h7.64A3.93,3.93,0,0,1,25.48,22.49Z"/>
</svg>
