<svg xmlns="http://www.w3.org/2000/svg" viewBox="0 0 32 32">
  <title>icon-join</title>
  <path d="M22.15,16.9a7.57,7.57,0,0,0,1.47-4.49V9A7.62,7.62,0,0,0,8.79,6.49h1.33A6.37,6.37,0,0,1,22.38,9v3.46a6.38,6.38,0,0,1-12.75,0v-2H8.38v2A7.57,7.57,0,0,0,9.85,16.9,14.24,14.24,0,0,0,1,30v.63H31V30A14.24,14.24,0,0,0,22.15,16.9ZM2.27,29.38A13,13,0,0,1,10.72,17.9h0a7.59,7.59,0,0,0,10.56,0h0a13,13,0,0,1,8.45,11.47ZM1.47,8.44a.7.7,0,0,1,.7-.7H5.46V4.46a.7.7,0,1,1,1.41,0V7.74h3.28a.7.7,0,1,1,0,1.41H6.87v3.28a.7.7,0,1,1-1.41,0V9.15H2.17A.7.7,0,0,1,1.47,8.44Z"/>
</svg>
