<svg xmlns="http://www.w3.org/2000/svg" viewBox="0 0 32 32">
  <title>icon-gift</title>
  <path d="M29.85,6.1H27a5.23,5.23,0,0,0-3.85-4.48,5.42,5.42,0,0,0-6,2.14L16,5.41,14.86,3.76a5.42,5.42,0,0,0-6-2.14A5.23,5.23,0,0,0,5,6.1H2.15a.7.7,0,0,0-.7.7v4.95a.7.7,0,0,0,.7.7h.78V29.89a.7.7,0,0,0,.7.7H28.37a.7.7,0,0,0,.7-.7V12.46h.78a.7.7,0,0,0,.7-.7V6.8A.7.7,0,0,0,29.85,6.1ZM18.3,4.57A4,4,0,0,1,22.76,3,3.81,3.81,0,0,1,25.57,6.1H17.24ZM9.24,3A4,4,0,0,1,13.7,4.57L14.76,6.1H6.43A3.81,3.81,0,0,1,9.24,3ZM2.85,7.51H15.19V11H2.85Zm1.48,4.95H15.19V29.18H4.34ZM27.66,29.18H16.6V12.46H27.66ZM29.15,11H16.6V7.51H29.15Z"/>
</svg>
