<svg xmlns="http://www.w3.org/2000/svg" viewBox="0 0 32 32">
  <title>icon-youtube</title>
  <path d="M25.92,21.09a23.17,23.17,0,0,1-.35,4.69,2.54,2.54,0,0,1-.78,1.33,2.35,2.35,0,0,1-1.37.62A71.61,71.61,0,0,1,16,28a71.61,71.61,0,0,1-7.43-.28,2.38,2.38,0,0,1-1.37-.62,2.45,2.45,0,0,1-.77-1.33,22.69,22.69,0,0,1-.35-4.69,23.17,23.17,0,0,1,.35-4.69,2.54,2.54,0,0,1,.78-1.33,2.43,2.43,0,0,1,1.38-.63Q11,14.18,16,14.18t7.43.27a2.51,2.51,0,0,1,2.14,2A22.7,22.7,0,0,1,25.92,21.09ZM10.31,17.75h1.43V16.5H7.56v1.26H9v7.62h1.34ZM12.56,4h1.37L12.3,9.34V13H11V9.34a22.64,22.64,0,0,0-.82-2.84Q9.65,5.13,9.28,4H10.7l1,3.52Zm1.61,21.38h1.19V18.76H14.17v5.06q-.4.56-.76.56t-.28-.28a3.71,3.71,0,0,1,0-.47V18.76H11.92V24A3.31,3.31,0,0,0,12,25a.72.72,0,0,0,.78.5,2,2,0,0,0,1.37-.82ZM17.51,8.46V10.8a2.64,2.64,0,0,1-.37,1.58,1.8,1.8,0,0,1-2.83,0,2.67,2.67,0,0,1-.37-1.58V8.46a2.61,2.61,0,0,1,.38-1.57,1.8,1.8,0,0,1,2.83,0A2.62,2.62,0,0,1,17.51,8.46ZM16.29,11V8.22q0-.92-.58-.92t-.58.92V11q0,.94.58.94T16.29,11Zm3.62,12.36V20.75a4.78,4.78,0,0,0-.12-1.33.93.93,0,0,0-1-.75,1.61,1.61,0,0,0-1.25.72V16.5H16.4v8.88h1.19v-.64a1.66,1.66,0,0,0,1.25.74.93.93,0,0,0,1-.74A4.94,4.94,0,0,0,19.91,23.39Zm-1.19-2.73v2.83q0,.9-.52.9a.86.86,0,0,1-.6-.29v-4a.86.86,0,0,1,.6-.29Q18.72,19.76,18.72,20.66ZM22,6.29V13H20.78v-.74a1.93,1.93,0,0,1-1.38.83.74.74,0,0,1-.79-.5,3.43,3.43,0,0,1-.11-1V6.29h1.22v4.92a3.5,3.5,0,0,0,0,.47c0,.2.12.29.28.29s.5-.19.76-.58V6.29Zm2.44,17v-.17H23.22a6.66,6.66,0,0,1,0,.82.51.51,0,0,1-.54.48q-.62,0-.62-.92V22.29h2.4V20.92a2.66,2.66,0,0,0-.36-1.55,1.83,1.83,0,0,0-2.85,0,2.59,2.59,0,0,0-.37,1.55v2.32a2.51,2.51,0,0,0,.39,1.55,1.72,1.72,0,0,0,1.45.68,1.63,1.63,0,0,0,1.45-.71,1.62,1.62,0,0,0,.28-.72A5.92,5.92,0,0,0,24.44,23.26Zm-1.19-2.58v.62H22v-.62q0-.91.6-.91T23.25,20.67Z"/>
</svg>
