<svg xmlns="http://www.w3.org/2000/svg" viewBox="0 0 32 32">
  <title>icon-target</title>
  <path d="M30.8,3.76a.7.7,0,0,1-.7.7H28.24a.7.7,0,0,1-.7-.7V1.9a.7.7,0,1,1,1.41,0V3.06H30.1A.7.7,0,0,1,30.8,3.76ZM26.37,6.33h1.86a.7.7,0,0,0,0-1.41H27.08V3.76a.7.7,0,1,0-1.41,0V5.63A.7.7,0,0,0,26.37,6.33Zm-.53,1.86a13.9,13.9,0,1,1-2-2V5.63a.7.7,0,1,1,1.41,0V6.78h1.16a.7.7,0,0,1,0,1.41Zm1.7,8.74a12.41,12.41,0,0,0-3.17-8.3l-1.8,1.8a9.94,9.94,0,1,1-1-1l1.8-1.8a12.46,12.46,0,1,0,4.17,9.29Zm-8.78-2.68-3.45,3.45a.7.7,0,0,1-1-1l3.45-3.45a4.58,4.58,0,1,0,1,1Zm1.82-3.81a8.53,8.53,0,1,0,1,1l-1.81,1.81a6,6,0,1,1-1-1Z"/>
</svg>
