<svg xmlns="http://www.w3.org/2000/svg" viewBox="0 0 32 32">
  <title>icon-coffee</title>
  <path d="M25.42,27.53H5.59a4.44,4.44,0,0,1-3.25-1.34A4.44,4.44,0,0,1,1,22.94v-.62H30v.63a4.59,4.59,0,0,1-4.59,4.59Zm-23.12-4a3.18,3.18,0,0,0,.93,1.74,3.19,3.19,0,0,0,2.36,1H25.42a3.36,3.36,0,0,0,3.29-2.72Zm17.66-2H9.06a4,4,0,0,1-2.89-1.21A4,4,0,0,1,5,17.49V6.09A1.63,1.63,0,0,1,6.58,4.47H24.43A6.36,6.36,0,0,1,29.07,6.4h0A6.36,6.36,0,0,1,31,11a6.36,6.36,0,0,1-1.93,4.65,6.36,6.36,0,0,1-4.65,1.93h-.37a4.12,4.12,0,0,1-4.09,4ZM6.58,5.72a.38.38,0,0,0-.37.37v11.4a2.87,2.87,0,0,0,2.84,2.84H20a2.87,2.87,0,0,0,2.84-2.84V16.37h1.62a5.09,5.09,0,0,0,3.76-1.56A5.09,5.09,0,0,0,29.75,11a5.09,5.09,0,0,0-1.56-3.76,5.09,5.09,0,0,0-3.76-1.56Zm17.84,8.92H22.81V7.44h1.62A3.59,3.59,0,0,1,28,11a3.59,3.59,0,0,1-3.6,3.6Zm-.37-1.25h.37A2.34,2.34,0,0,0,26.78,11a2.34,2.34,0,0,0-2.35-2.35h-.37Z"/>
</svg>
