<svg xmlns="http://www.w3.org/2000/svg" viewBox="0 0 32 32">
  <title>icon-location</title>
  <path d="M21.28,10.8A5.28,5.28,0,1,0,16,16.08,5.29,5.29,0,0,0,21.28,10.8Zm-9.15,0A3.87,3.87,0,1,1,16,14.67,3.88,3.88,0,0,1,12.13,10.8Zm3.32,16.38a.71.71,0,0,0,1.1,0S18.81,24.34,21,21c3-4.6,4.55-8,4.55-10.21a9.58,9.58,0,0,0-19.15,0C6.42,12.94,8,16.37,11,21,13.19,24.34,15.43,27.15,15.45,27.18ZM16,2.6a8.18,8.18,0,0,1,8.17,8.17c0,3.55-5.46,11.34-8.17,14.83-2.71-3.5-8.17-11.28-8.17-14.83A8.18,8.18,0,0,1,16,2.6ZM30.7,30.48a.71.71,0,0,1-.6.33H1.9a.7.7,0,0,1-.63-1L5.5,21.33a.71.71,0,0,1,.63-.39H8.89a.7.7,0,1,1,0,1.41H6.57L3,29.4H29l-3.52-7H23.11a.7.7,0,1,1,0-1.41h2.76a.71.71,0,0,1,.63.39l4.23,8.46A.71.71,0,0,1,30.7,30.48Z"/>
</svg>
