<svg xmlns="http://www.w3.org/2000/svg" viewBox="0 0 32 32" fill="currentColor">
  <title>unlocked</title>
  <path d="M14.19,24.76a1.81,1.81,0,1,0,3.61,0V22.15a2.47,2.47,0,1,0-4.27-1.78,2.48,2.48,0,0,0,.66,1.78ZM16,19.41h0a1.06,1.06,0,0,1,.66,1.88.71.71,0,0,0-.26.55v2.92a.4.4,0,1,1-.79,0V21.84a.7.7,0,0,0-.26-.55,1,1,0,0,1-.4-.87A1.07,1.07,0,0,1,16,19.41Zm9.9-5.35H9.68l-1.2-2.79a6.34,6.34,0,1,1,11.65-5L21.77,10a.71.71,0,1,0,1.29-.56l-1.64-3.8A7.75,7.75,0,0,0,7.19,11.83l.93,2.23h-2a.7.7,0,0,0-.7.7V30.3a.7.7,0,0,0,.7.7H25.87a.7.7,0,0,0,.7-.7V14.76A.7.7,0,0,0,25.87,14.06Zm-.7,15.53H6.84V15.47H25.16Z"/>
</svg>
