<svg xmlns="http://www.w3.org/2000/svg" viewBox="0 0 32 32">
  <title>icon-group</title>
  <path d="M8.92,17.49V16.17H8a38.7,38.7,0,0,1-5.6-.38,5.24,5.24,0,0,1,3.7-4.44H9.8a6.89,6.89,0,0,1,.61-.9A3.89,3.89,0,0,0,12,7.34V5.39A3.91,3.91,0,0,0,8.09,1.49H7.91A3.91,3.91,0,0,0,4,5.39V7.34a3.88,3.88,0,0,0,1.33,2.91A6.69,6.69,0,0,0,1,16.91a36.76,36.76,0,0,0,7,.6ZM5.33,7.34V5.39A2.58,2.58,0,0,1,7.91,2.81h.19a2.58,2.58,0,0,1,2.58,2.58V7.34A2.58,2.58,0,0,1,8.09,9.92H7.91A2.58,2.58,0,0,1,5.33,7.34Zm16.27,3.13a6.89,6.89,0,0,1,.61.9h3.7a5.24,5.24,0,0,1,3.7,4.44,38.68,38.68,0,0,1-5.6.38h-.92v1.32H24a36.76,36.76,0,0,0,7-.6,6.69,6.69,0,0,0-4.33-6.66A3.88,3.88,0,0,0,28,7.34V5.39a3.91,3.91,0,0,0-3.91-3.91h-.19A3.91,3.91,0,0,0,20,5.39V7.34A3.89,3.89,0,0,0,21.59,10.47Zm-.27-5.08a2.58,2.58,0,0,1,2.58-2.58h.19a2.58,2.58,0,0,1,2.58,2.58V7.34a2.58,2.58,0,0,1-2.58,2.58h-.19a2.58,2.58,0,0,1-2.58-2.58Zm-.66,15.45a5.58,5.58,0,0,0,1.09-3.31v-2.8a5.62,5.62,0,0,0-5.62-5.62h-.27a5.62,5.62,0,0,0-5.62,5.62v2.8a5.58,5.58,0,0,0,1.09,3.31A11.37,11.37,0,0,0,5,30.15,63.53,63.53,0,0,0,16,31a63.52,63.52,0,0,0,11-.85A11.37,11.37,0,0,0,20.66,20.85Zm-9.09-6.11a4.3,4.3,0,0,1,4.29-4.29h.27a4.3,4.3,0,0,1,4.29,4.29v2.8a4.3,4.3,0,0,1-4.29,4.29h-.27a4.3,4.3,0,0,1-4.29-4.29ZM16,29.67a66.47,66.47,0,0,1-9.49-.62,9.89,9.89,0,0,1,5.28-7c.13,0,.37-.06.69-.1a5.58,5.58,0,0,0,3.39,1.15h.27A5.58,5.58,0,0,0,19.55,22a5.86,5.86,0,0,1,.66.11,9.89,9.89,0,0,1,5.28,7A66.45,66.45,0,0,1,16,29.67Z"/>
</svg>
