<svg xmlns="http://www.w3.org/2000/svg" viewBox="0 0 32 32" fill="currentColor">
  <title>institution</title>
  <path d="M30.4,30H1.6a.63.63,0,0,1,0-1.25H30.4a.63.63,0,0,1,0,1.25ZM29,27.13a.63.63,0,0,0-.64-.62H3.64a.63.63,0,1,0,0,1.25H28.36A.63.63,0,0,0,29,27.13ZM7.25,13.5H6v12H7.25Zm6.25,0H12.25v12H13.5Zm6.25,0H18.5v12h1.25Zm6.25,0H24.75v12H26Zm3-1.62a.63.63,0,0,0-.64-.62H3.64a.63.63,0,1,0,0,1.25H28.36A.63.63,0,0,0,29,11.88Zm2-2.12a.63.63,0,0,0-.34-.7L16.26,1.31a.58.58,0,0,0-.5,0L1.35,9.06a.63.63,0,0,0-.34.7.61.61,0,0,0,.59.49H30.4A.61.61,0,0,0,31,9.76ZM16,2.56,27.67,9H4.34Z"/>
</svg>
