<svg xmlns="http://www.w3.org/2000/svg" viewBox="0 0 32 32">
  <title>icon-bullet-list</title>
  <path d="M3.5,7.79A2.5,2.5,0,1,1,6,5.29,2.5,2.5,0,0,1,3.5,7.79Zm0-3.57A1.07,1.07,0,1,0,4.57,5.29,1.07,1.07,0,0,0,3.5,4.21Zm0,14.29A2.5,2.5,0,1,1,6,16,2.5,2.5,0,0,1,3.5,18.5Zm0-3.57A1.07,1.07,0,1,0,4.57,16,1.07,1.07,0,0,0,3.5,14.93Zm0,14.29A2.5,2.5,0,1,1,6,26.71,2.5,2.5,0,0,1,3.5,29.21Zm0-3.57a1.07,1.07,0,1,0,1.07,1.07A1.07,1.07,0,0,0,3.5,25.64ZM31,5.29a.71.71,0,0,0-.71-.71H11A.71.71,0,0,0,11,6H30.29A.71.71,0,0,0,31,5.29ZM31,16a.71.71,0,0,0-.71-.71H11a.71.71,0,0,0,0,1.43H30.29A.71.71,0,0,0,31,16Zm0,10.71a.71.71,0,0,0-.71-.71H11a.71.71,0,1,0,0,1.43H30.29A.71.71,0,0,0,31,26.71Z"/>
</svg>
