<svg xmlns="http://www.w3.org/2000/svg" viewBox="0 0 32 32">
  <title>icon-person</title>
  <path d="M22.36,16.76a7.71,7.71,0,0,0,1.39-4.42V8.93a7.75,7.75,0,1,0-15.51,0v3.4a7.71,7.71,0,0,0,1.39,4.42A14.73,14.73,0,0,0,1.2,30.12a.7.7,0,0,0,.7.7H30.1a.7.7,0,0,0,.7-.7A14.73,14.73,0,0,0,22.36,16.76ZM9.66,8.93a6.34,6.34,0,1,1,12.69,0v3.4a6.34,6.34,0,0,1-2.51,5l-.06,0-.16.11-.11.08-.13.08-.16.1-.1.06-.2.11-.07,0-.24.12,0,0-.28.12h0a6.34,6.34,0,0,1-1.6.39h0l-.31,0h-.73l-.31,0h0a6.35,6.35,0,0,1-1.61-.39h0l-.29-.12,0,0L13.14,18l-.06,0-.21-.11-.09-.05-.17-.1-.12-.08-.12-.08-.15-.11-.07-.05a6.34,6.34,0,0,1-2.5-5Zm-7,20.48a13.33,13.33,0,0,1,8-11.54,7.76,7.76,0,0,0,.76.65l0,0,.23.16.09.06.19.12L12,19l.14.08.2.11.09,0,.26.13,0,0a7.69,7.69,0,0,0,2.11.63h0l.36,0h.11l.27,0h.77l.26,0h.12l.35,0h0a7.68,7.68,0,0,0,1.8-.49h0l.31-.14,0,0,.26-.13.09,0,.2-.11L20,19l.14-.09.19-.12.08-.06.24-.17,0,0a7.75,7.75,0,0,0,.77-.66,13.33,13.33,0,0,1,8,11.54Z"/>
</svg>
