<svg xmlns="http://www.w3.org/2000/svg" viewBox="0 0 32 32">
  <title>icon-trash</title>
  <path d="M20.71,25.2V10.32a.68.68,0,1,1,1.36,0V25.2a.68.68,0,0,1-1.36,0ZM31,6.72a.68.68,0,0,1-.68.68H27.46V26.13a4.38,4.38,0,0,1-4.37,4.37H8.92a4.38,4.38,0,0,1-4.37-4.37V7.4H1.68A.68.68,0,1,1,1.68,6H10V5A4.56,4.56,0,0,1,14.51.5h3A4.56,4.56,0,0,1,22.11,5V6h8.21A.68.68,0,0,1,31,6.72ZM11.3,5V6h9.47V5a3.21,3.21,0,0,0-3.21-3.21h-3A3.21,3.21,0,0,0,11.3,5ZM5.91,7.4V26.13a3,3,0,0,0,3,3H23.08a3,3,0,0,0,3-3V7.4Zm4.7,18.48a.68.68,0,0,0,.68-.68V10.32a.68.68,0,1,0-1.36,0V25.2A.68.68,0,0,0,10.61,25.88Zm5.39,0a.68.68,0,0,0,.68-.68V10.32a.68.68,0,1,0-1.36,0V25.2A.68.68,0,0,0,16,25.88Z"/>
</svg>
