<svg xmlns="http://www.w3.org/2000/svg" viewBox="0 0 32 32" fill="currentColor">
  <title>basket</title>
  <path d="M30.1,9.41H22.76l5-5a.7.7,0,0,0-1-1l-6,6H11.24l-6-6a.7.7,0,1,0-1,1l5,5H1.9a.7.7,0,0,0-.7.7v5a.7.7,0,0,0,.7.7h.55L3.82,28.14a.7.7,0,0,0,.7.63h23a.7.7,0,0,0,.7-.63l1.37-12.29h.55a.7.7,0,0,0,.7-.7v-5A.7.7,0,0,0,30.1,9.41ZM2.61,10.82H29.39v3.63H2.61ZM26.85,27.36H5.15L3.87,15.85H28.13ZM11.47,24.64V18.57a.7.7,0,1,1,1.41,0v6.07a.7.7,0,1,1-1.41,0Zm3.83,0V18.57a.7.7,0,1,1,1.41,0v6.07a.7.7,0,1,1-1.41,0Zm3.83,0V18.57a.7.7,0,1,1,1.41,0v6.07a.7.7,0,1,1-1.41,0Zm3.83,0V18.57a.7.7,0,1,1,1.41,0v6.07a.7.7,0,1,1-1.41,0Zm-15.31,0V18.57a.7.7,0,1,1,1.41,0v6.07a.7.7,0,1,1-1.41,0Z"/>
</svg>
