<svg xmlns="http://www.w3.org/2000/svg" viewBox="0 0 32 32">
  <title>icon-family</title>
  <path d="M2.35,24c.21-6.11,1.93-9,5.6-9.42A4,4,0,0,0,9.57,15h.37A4.09,4.09,0,0,0,14,10.87V8.4A4.09,4.09,0,0,0,9.94,4.32H9.57A4.09,4.09,0,0,0,5.49,8.4v2.48a4,4,0,0,0,1,2.67C2,14.81,1,19.78,1,25.36H7.83A7.88,7.88,0,0,1,8.24,24H2.35ZM6.82,8.4A2.76,2.76,0,0,1,9.57,5.64h.37A2.76,2.76,0,0,1,12.7,8.4v2.48a2.76,2.76,0,0,1-2.75,2.75H9.57a2.76,2.76,0,0,1-2.75-2.75Zm.36,5.76,0,0Zm18.29-.61a4,4,0,0,0,1-2.68V8.4a4.09,4.09,0,0,0-4.08-4.08h-.37A4.09,4.09,0,0,0,18,8.4v2.48A4.09,4.09,0,0,0,22.06,15h.37a4,4,0,0,0,1.63-.35h0c2.64.29,5.31,2,5.59,9.43H23.76a7.88,7.88,0,0,1,.41,1.33H31C31,19.79,29.88,14.83,25.48,13.55Zm-.29-2.68a2.76,2.76,0,0,1-2.75,2.75h-.37a2.76,2.76,0,0,1-2.75-2.75V8.4a2.76,2.76,0,0,1,2.75-2.75h.37A2.76,2.76,0,0,1,25.18,8.4ZM19.24,21h0a3.66,3.66,0,0,0,.46-1.75V17.73a3.7,3.7,0,0,0-7.41,0v1.52A3.66,3.66,0,0,0,12.76,21,6.7,6.7,0,0,0,9,26.2l-.18,1.48h14.3L23,26.2A6.7,6.7,0,0,0,19.24,21Zm-5.62-3.27a2.38,2.38,0,0,1,4.76,0v1.52a2.38,2.38,0,0,1-4.76,0Zm-3.28,8.63a5.35,5.35,0,0,1,3.27-4.3,3.63,3.63,0,0,0,4.77,0h0a5.35,5.35,0,0,1,3.27,4.3Z"/>
</svg>
