<svg xmlns="http://www.w3.org/2000/svg" viewBox="0 0 32 32">
  <title>icon-locked</title>
  <path d="M25.87,14H23.75V9.24a7.75,7.75,0,0,0-15.51,0V14H6.13a.7.7,0,0,0-.7.7V30.3a.7.7,0,0,0,.7.7H25.87a.7.7,0,0,0,.7-.7V14.7A.7.7,0,0,0,25.87,14ZM9.66,9.24a6.34,6.34,0,0,1,12.69,0V14H9.66ZM25.16,29.5H6.84v-14H25.16ZM15.93,18a2.47,2.47,0,0,0-1.73,4.14v2.62a1.81,1.81,0,0,0,3.61,0V22.15A2.47,2.47,0,0,0,15.93,18Zm.73,3.29a.7.7,0,0,0-.26.55v2.92a.4.4,0,0,1-.79,0V21.84a.71.71,0,0,0-.26-.55,1.05,1.05,0,0,1-.4-.87,1.07,1.07,0,0,1,1-1h0a1.06,1.06,0,0,1,.66,1.88Z"/>
</svg>
