<svg xmlns="http://www.w3.org/2000/svg" viewBox="0 0 32 32">
  <title>icon-alarm</title>
  <path d="M27.1,17.52a24.83,24.83,0,0,1-2.23-2.89,11.88,11.88,0,0,1-1.93-6.49,6.94,6.94,0,1,0-13.88,0,11.88,11.88,0,0,1-1.93,6.49A24.85,24.85,0,0,1,4.9,17.52,8.31,8.31,0,0,0,2.82,23v3.83a.7.7,0,0,0,.7.7h8.7a3.82,3.82,0,0,0,7.55,0h8.7a.7.7,0,0,0,.7-.7V23A8.31,8.31,0,0,0,27.1,17.52ZM6,18.45A26.22,26.22,0,0,0,8.31,15.4a13.29,13.29,0,0,0,2.15-7.26,5.53,5.53,0,1,1,11.06,0,13.29,13.29,0,0,0,2.15,7.26A26.2,26.2,0,0,0,26,18.45a6.9,6.9,0,0,1,1.69,3.89H4.27A6.9,6.9,0,0,1,6,18.45ZM16,29.39a2.42,2.42,0,0,1-2.34-1.84h4.68A2.42,2.42,0,0,1,16,29.39ZM4.23,26.14V23.76H27.77v2.39Z"/>
</svg>
