<svg xmlns="http://www.w3.org/2000/svg" viewBox="0 0 32 32">
  <title>icon-twitter</title>
  <path d="M26.55,9.46a9.07,9.07,0,0,1-2.17,2.24q0,.19,0,.56a12.29,12.29,0,0,1-.51,3.48,12.56,12.56,0,0,1-1.55,3.33,13.09,13.09,0,0,1-2.47,2.82,11,11,0,0,1-3.46,2,12.65,12.65,0,0,1-4.33.73,12,12,0,0,1-6.64-1.94,9.39,9.39,0,0,0,1,.05,8.47,8.47,0,0,0,5.37-1.85,4.34,4.34,0,0,1-4-3,5.44,5.44,0,0,0,.82.07,4.5,4.5,0,0,0,1.14-.15,4.26,4.26,0,0,1-2.48-1.49,4.18,4.18,0,0,1-1-2.75v-.05a4.29,4.29,0,0,0,2,.55,4.33,4.33,0,0,1-1.41-1.54,4.34,4.34,0,0,1,.07-4.25,12.25,12.25,0,0,0,3.94,3.19,12.07,12.07,0,0,0,5,1.33,4.82,4.82,0,0,1-.11-1,4.32,4.32,0,0,1,4.33-4.33,4.17,4.17,0,0,1,3.16,1.37,8.49,8.49,0,0,0,2.75-1,4.2,4.2,0,0,1-1.9,2.38A8.62,8.62,0,0,0,26.55,9.46Z"/>
</svg>
