<svg xmlns="http://www.w3.org/2000/svg" viewBox="0 0 32 32" fill="currentColor">
  <title>linkedin</title>
  <path d="M10.67,8.46A2.12,2.12,0,0,1,10,10.09a2.53,2.53,0,0,1-1.81.66h0a2.42,2.42,0,0,1-1.77-.66,2.2,2.2,0,0,1-.67-1.63A2.16,2.16,0,0,1,6.4,6.82a2.52,2.52,0,0,1,1.8-.65A2.45,2.45,0,0,1,10,6.82,2.23,2.23,0,0,1,10.67,8.46Zm-.28,4.1V25.83H6V12.56Zm15.9,5.67v7.61H21.88v-7.1a3.88,3.88,0,0,0-.54-2.2,1.91,1.91,0,0,0-1.69-.8,2.17,2.17,0,0,0-1.41.46,2.84,2.84,0,0,0-.85,1.15,3.22,3.22,0,0,0-.15,1.08v7.41H12.83q0-5.34,0-8.67t0-4v-.64h4.41v1.93h0a5.92,5.92,0,0,1,.55-.75,5.71,5.71,0,0,1,.76-.7,3.48,3.48,0,0,1,1.17-.58,5.3,5.3,0,0,1,1.53-.21,4.76,4.76,0,0,1,3.68,1.52A6.37,6.37,0,0,1,26.29,18.22Z"/>
</svg>
