<svg xmlns="http://www.w3.org/2000/svg" viewBox="0 0 32 32" fill="currentColor">
  <title>star</title>
  <path d="M7.29,30.11a.7.7,0,0,1-.67-.92l3.17-9.76-8.3-6a.7.7,0,0,1,.41-1.28H12.16l3.17-9.76a.71.71,0,0,1,1.34,0l3.17,9.76H30.1a.7.7,0,0,1,.41,1.28l-8.3,6,3.17,9.76A.71.71,0,0,1,24.3,30l-8.3-6L7.7,30A.7.7,0,0,1,7.29,30.11ZM16,22.37a.7.7,0,0,1,.41.13l7,5.06-2.66-8.18A.71.71,0,0,1,21,18.6l7-5.06h-8.6a.71.71,0,0,1-.67-.49L16,4.87l-2.66,8.18a.71.71,0,0,1-.67.49H4.07l7,5.06a.71.71,0,0,1,.26.79L8.63,27.56l7-5.06A.7.7,0,0,1,16,22.37Z"/>
</svg>
