<svg xmlns="http://www.w3.org/2000/svg" viewBox="0 0 32 32">
  <title>icon-protection</title>
  <path d="M28.12,5.12l-12-3.48a.71.71,0,0,0-.4,0L3.88,5.12a.7.7,0,0,0-.51.67,56.77,56.77,0,0,0,.72,8.51c1,6.22,2.84,10.73,5.47,13.38a8.86,8.86,0,0,0,12.78,0C25,25,26.84,20.52,27.87,14.3a56.85,56.85,0,0,0,.76-8.51A.71.71,0,0,0,28.12,5.12ZM21.34,26.68a7.45,7.45,0,0,1-10.78,0C5.37,21.45,4.84,9,4.79,6.32L15.94,3,27.21,6.32C27.14,9,26.56,21.44,21.34,26.68Zm-7.53-15.9v2.56H11.25a.7.7,0,0,0-.7.7v3a.7.7,0,0,0,.7.7h2.56v2.56a.7.7,0,0,0,.7.7h3a.7.7,0,0,0,.7-.7V17.71h2.56a.7.7,0,0,0,.7-.7V14a.7.7,0,0,0-.7-.7H18.19V10.78a.7.7,0,0,0-.7-.7h-3A.7.7,0,0,0,13.81,10.78ZM15.22,14V11.48h1.56V14a.7.7,0,0,0,.7.7H20V16.3H17.48a.7.7,0,0,0-.7.7v2.56H15.22V17a.7.7,0,0,0-.7-.7H12V14.75h2.56A.7.7,0,0,0,15.22,14Z"/>
</svg>
