<svg xmlns="http://www.w3.org/2000/svg" viewBox="0 0 32 32" fill="currentColor">
  <title>print</title>
  <path d="M30.1,10H24.78V2.16a.7.7,0,0,0-.7-.7H7.93a.7.7,0,0,0-.7.7V10H1.9a.7.7,0,0,0-.7.7v13.8a.7.7,0,0,0,.7.7H7.22v4.63a.7.7,0,0,0,.7.7H24.07a.7.7,0,0,0,.7-.7V25.21H30.1a.7.7,0,0,0,.7-.7V10.7A.7.7,0,0,0,30.1,10ZM8.63,2.86H23.37V9.92H8.63ZM23.37,29.14H8.63V20.38H23.37Zm6-5.33H24.78V19.68a.7.7,0,0,0-.7-.7H7.93a.7.7,0,0,0-.7.7V23.8H2.61V11.41H29.39Zm-19.31-.64a.7.7,0,0,1,.7-.7H21.21a.7.7,0,0,1,0,1.41H10.79A.7.7,0,0,1,10.08,23.16Zm0,3.19a.7.7,0,0,1,.7-.7H21.21a.7.7,0,0,1,0,1.41H10.79A.7.7,0,0,1,10.08,26.36Z"/>
</svg>
