<svg xmlns="http://www.w3.org/2000/svg" viewBox="0 0 32 32">
  <title>icon-attachment</title>
  <path d="M30,15.13a.71.71,0,0,0,.23-.54.7.7,0,0,0-.23-.53.72.72,0,0,0-1.07,0L16.2,26.78a7.51,7.51,0,0,1-2.5,1.66,8.6,8.6,0,0,1-2.85.55,7.53,7.53,0,0,1-5.33-2.21,7.44,7.44,0,0,1-1.66-2.49,7.6,7.6,0,0,1-.55-2.84A7.57,7.57,0,0,1,5.51,16.1L18.28,3.4A4.6,4.6,0,0,1,21.64,2,4.67,4.67,0,0,1,25,3.4,4.6,4.6,0,0,1,26.4,6.77,4.6,4.6,0,0,1,25,10.13L12.28,22.86a2,2,0,0,1-2.85,0,2,2,0,0,1,0-2.86L21.18,8.28a.71.71,0,0,0,.23-.54.7.7,0,0,0-.23-.53.72.72,0,0,0-1.07,0L8.36,19a3.53,3.53,0,0,0-.77,1.16,3.48,3.48,0,0,0-.26,1.33,3.51,3.51,0,0,0,1,2.48,3.66,3.66,0,0,0,1.18.78,3.56,3.56,0,0,0,2.64,0,3.64,3.64,0,0,0,1.17-.78L26.08,11.19a6.26,6.26,0,0,0,0-8.86A6.14,6.14,0,0,0,24,1,6.21,6.21,0,0,0,21.64.5h-.14A6.32,6.32,0,0,0,19.28,1a6.19,6.19,0,0,0-2.07,1.37L4.27,15.22A9.11,9.11,0,0,0,2.47,18a9,9,0,0,0,5,11.8,9.06,9.06,0,0,0,9.81-2Z"/>
</svg>
