<svg xmlns="http://www.w3.org/2000/svg" viewBox="0 0 32 32">
  <title>icon-archive</title>
  <path d="M28.38,10.5H3.63a.62.62,0,0,0-.62.63V27.88a.62.62,0,0,0,.63.63H28.38a.62.62,0,0,0,.63-.62V11.13A.62.62,0,0,0,28.38,10.5Zm-.62,16.75H4.25V11.75h23.5ZM29.38,3.5H2.63A.62.62,0,0,0,2,4.13V8.88a.62.62,0,0,0,.63.63H29.38A.62.62,0,0,0,30,8.88V4.13A.62.62,0,0,0,29.38,3.5Zm-.62,4.75H3.25V4.75h25.5ZM14.13,18.5h3.75a1.63,1.63,0,0,0,1.63-1.62v-.75a1.63,1.63,0,0,0-1.62-1.62H14.13a1.63,1.63,0,0,0-1.62,1.63v.75A1.63,1.63,0,0,0,14.13,18.5Zm-.37-2.37a.38.38,0,0,1,.38-.37h3.75a.38.38,0,0,1,.38.38v.75a.38.38,0,0,1-.37.38H14.13a.38.38,0,0,1-.37-.37Z"/>
</svg>
