<svg xmlns="http://www.w3.org/2000/svg" viewBox="0 0 32 32">
  <title>icon-shopping-cart</title>
  <path d="M30.65,8.28A.71.71,0,0,0,30.1,8H8L7.15,4.18h0v0a.7.7,0,0,0,0-.1l0-.05,0-.07,0-.05,0-.05,0,0-.06,0-.06,0-.06,0-.07,0-.06,0H1.9A.7.7,0,1,0,1.9,5h4l4.22,19.59a2.4,2.4,0,1,0,4.27,2.07h8.95a2.4,2.4,0,1,0,0-1.41H14.38a2.4,2.4,0,0,0-3-1.58l-.45-2.09H27.38a.71.71,0,0,0,.69-.55L30.79,8.87A.71.71,0,0,0,30.65,8.28ZM25.63,25a1,1,0,1,1-1,1A1,1,0,0,1,25.63,25ZM13.08,26a1,1,0,1,1-1-1A1,1,0,0,1,13.08,26ZM26.82,20.2H10.6L8.28,9.42H29.22Z"/>
</svg>
