<svg xmlns="http://www.w3.org/2000/svg" viewBox="0 0 32 32" fill="currentColor">
  <title>idea</title>
  <path d="M23.49,18.79a10.48,10.48,0,1,0-15.07-.08,8.86,8.86,0,0,1,2.86,4.81l.3.9h-.47a.71.71,0,0,0,0,1.43h.64v1.93s0,0,0,.06,0,0,0,.05a.71.71,0,0,0,0,.14v0h0l1,2.48a.71.71,0,0,0,.66.45h5a.71.71,0,0,0,.66-.45l1-2.48h0v0a.71.71,0,0,0,0-.14s0,0,0-.05,0,0,0-.06V25.86h.64a.71.71,0,0,0,0-1.43H20.4l.28-.87C21.51,20.94,21.56,20.78,23.49,18.79Zm-14-1.07A9,9,0,0,1,7,10.8a9,9,0,1,1,15.5,7,9.58,9.58,0,0,0-3.16,5.33l-.42,1.3H16.71V15a3.23,3.23,0,1,0-1.43,0v9.43H13.1l-.46-1.36A10.14,10.14,0,0,0,9.46,17.73Zm9.36,9.35H13.18V25.86h5.63ZM16,13.65a1.8,1.8,0,1,1,1.8-1.8A1.81,1.81,0,0,1,16,13.65Zm2,15.92H14l-.43-1.06h4.94Z"/>
</svg>
