<svg xmlns="http://www.w3.org/2000/svg" viewBox="0 0 32 32">
  <title>icon-instagram</title>
  <path d="M16,7c2.94,0,3.29,0,4.44.06a6.09,6.09,0,0,1,2,.38,3.64,3.64,0,0,1,2.09,2.09,6.09,6.09,0,0,1,.38,2C25,12.71,25,13.06,25,16s0,3.29-.06,4.44a6.09,6.09,0,0,1-.38,2,3.64,3.64,0,0,1-2.09,2.09,6.09,6.09,0,0,1-2,.38C19.29,25,18.94,25,16,25s-3.29,0-4.44-.06a6.09,6.09,0,0,1-2-.38,3.64,3.64,0,0,1-2.09-2.09,6.09,6.09,0,0,1-.38-2C7,19.29,7,18.94,7,16s0-3.29.06-4.44a6.09,6.09,0,0,1,.38-2A3.64,3.64,0,0,1,9.51,7.42a6.09,6.09,0,0,1,2-.38C12.71,7,13.06,7,16,7m0-2c-3,0-3.36,0-4.54.07a8.07,8.07,0,0,0-2.67.51A5.62,5.62,0,0,0,5.58,8.79a8.07,8.07,0,0,0-.51,2.67C5,12.64,5,13,5,16s0,3.36.07,4.54a8.07,8.07,0,0,0,.51,2.67,5.62,5.62,0,0,0,3.22,3.22,8.07,8.07,0,0,0,2.67.51C12.64,27,13,27,16,27s3.36,0,4.54-.07a8.07,8.07,0,0,0,2.67-.51,5.62,5.62,0,0,0,3.22-3.22,8.07,8.07,0,0,0,.51-2.67C27,19.36,27,19,27,16s0-3.36-.07-4.54a8.07,8.07,0,0,0-.51-2.67,5.62,5.62,0,0,0-3.22-3.22,8.07,8.07,0,0,0-2.67-.51C19.36,5,19,5,16,5Zm0,5.35A5.65,5.65,0,1,0,21.65,16,5.65,5.65,0,0,0,16,10.35Zm0,9.32A3.67,3.67,0,1,1,19.67,16,3.67,3.67,0,0,1,16,19.67ZM21.87,8.81a1.32,1.32,0,1,0,1.32,1.32A1.32,1.32,0,0,0,21.87,8.81Z"/>
</svg>
