<svg xmlns="http://www.w3.org/2000/svg" viewBox="0 0 32 32">
  <title>icon-phone</title>
  <path d="M26,27.35l-.5.37c-3.37,2.5-7.27,2.16-9.47-.81L5.92,13.21c-2.2-3-1.38-6.8,2-9.29l.5-.37a3.19,3.19,0,0,1,4.45.67l1.75,2.36A3.19,3.19,0,0,1,13.95,11l-.73.54a.65.65,0,0,0-.14.91l5.77,7.8a.65.65,0,0,0,.91.14l.73-.54a3.19,3.19,0,0,1,4.45.67l1.75,2.36A3.19,3.19,0,0,1,26,27.35ZM8.75,5.05C6.46,6.75,5,9.67,7,12.38l10.14,13.7c2,2.71,5.21,2.21,7.5.52l.5-.37a1.77,1.77,0,0,0,.37-2.48l-1.75-2.36A1.77,1.77,0,0,0,21.33,21l-.73.54a2.06,2.06,0,0,1-2.88-.43L12,13.31a2.06,2.06,0,0,1,.43-2.88l.73-.54a1.77,1.77,0,0,0,.37-2.48L11.73,5.05a1.77,1.77,0,0,0-2.48-.37Z"/>
</svg>
