<svg xmlns="http://www.w3.org/2000/svg" viewBox="0 0 32 32" fill="currentColor">
  <title>article</title>
  <path d="M30,1.2H8.9a.7.7,0,0,0-.7.7V15.3H2a.7.7,0,0,0-.7.7V26.63A4.18,4.18,0,0,0,5.43,30.8H26.57a4.18,4.18,0,0,0,4.18-4.18V1.9A.7.7,0,0,0,30,1.2ZM2.66,26.63V16.7H8.19v9.92a2.77,2.77,0,0,1-5.54,0Zm23.92,2.77h-18A4.16,4.16,0,0,0,9.6,26.63v-24H29.34v24A2.77,2.77,0,0,1,26.57,29.39Zm.14-25H12.24a.7.7,0,0,0-.7.7v11a.7.7,0,0,0,.7.7H26.71a.7.7,0,0,0,.7-.7v-11A.7.7,0,0,0,26.71,4.37Zm-.7,11H12.94V5.78H26Zm1.41,4.07a.7.7,0,0,1-.7.7H12.24a.7.7,0,0,1,0-1.41H26.71A.7.7,0,0,1,27.42,19.43Zm0,3.44a.7.7,0,0,1-.7.7H12.24a.7.7,0,0,1,0-1.41H26.71A.7.7,0,0,1,27.42,22.87Zm0,3.44a.7.7,0,0,1-.7.7H12.24a.7.7,0,0,1,0-1.41H26.71A.7.7,0,0,1,27.42,26.3Z"/>
</svg>
