<svg xmlns="http://www.w3.org/2000/svg" viewBox="0 0 32 32">
  <title>icon-video</title>
  <path d="M22.33,12.48V11A3.85,3.85,0,0,0,18.48,7.2H4.85A3.72,3.72,0,0,0,2.13,8.32,3.72,3.72,0,0,0,1,11V21a3.72,3.72,0,0,0,1.13,2.72A3.72,3.72,0,0,0,4.85,24.8H18.48A3.85,3.85,0,0,0,22.33,21V19.52l8.49,4,.19.1V8.35Zm7.3-1.82V21.34L21,17.21V21a2.47,2.47,0,0,1-2.47,2.47H4.85a2.33,2.33,0,0,1-1.75-.72A2.33,2.33,0,0,1,2.37,21V11A2.33,2.33,0,0,1,3.1,9.29a2.33,2.33,0,0,1,1.75-.72H18.48A2.47,2.47,0,0,1,21,11v4Z"/>
</svg>
