<svg xmlns="http://www.w3.org/2000/svg" viewBox="0 0 32 32">
  <title>icon-art</title>
  <path d="M26.56,4.9A15.46,15.46,0,0,0,16,1,14.53,14.53,0,0,0,5.38,5.38,14.53,14.53,0,0,0,1,16,14.53,14.53,0,0,0,5.38,26.62,14.53,14.53,0,0,0,16,31a3,3,0,0,0,3.08-3.08,3.26,3.26,0,0,0-.75-2.08,1.77,1.77,0,0,1-.44-1.13,1.67,1.67,0,0,1,.48-1.19A1.55,1.55,0,0,1,19.57,23h2.76a8.45,8.45,0,0,0,6.12-2.51A8.26,8.26,0,0,0,31,14.44,12.34,12.34,0,0,0,26.56,4.9Zm.91,14.62a7,7,0,0,1-5.13,2.11H19.57a2.94,2.94,0,0,0-2.22.93,3,3,0,0,0-.86,2.16,3.15,3.15,0,0,0,.75,2,1.87,1.87,0,0,1,.44,1.2A1.6,1.6,0,0,1,16,29.6a13.17,13.17,0,0,1-9.63-4A13.17,13.17,0,0,1,2.4,16a13.17,13.17,0,0,1,4-9.63A13.17,13.17,0,0,1,16,2.4a14.1,14.1,0,0,1,9.63,3.55,10.85,10.85,0,0,1,4,8.49A6.81,6.81,0,0,1,27.46,19.52Zm.18-5a2.37,2.37,0,0,1-.74,1.8,2.55,2.55,0,0,1-3.52,0,2.36,2.36,0,0,1-.74-1.8,2.36,2.36,0,0,1,.74-1.8,2.55,2.55,0,0,1,3.52,0A2.37,2.37,0,0,1,27.64,14.5Zm-5-6.64a2.53,2.53,0,0,1-2.5,2.5,2.4,2.4,0,0,1-1.76-.74,2.45,2.45,0,0,1,0-3.52,2.45,2.45,0,0,1,3.52,0A2.41,2.41,0,0,1,22.64,7.86Zm-9-1.76a2.45,2.45,0,0,1,0,3.52,2.45,2.45,0,0,1-3.52,0,2.45,2.45,0,0,1,0-3.52,2.45,2.45,0,0,1,3.52,0Zm-5,6.6a2.37,2.37,0,0,1,.74,1.8,2.37,2.37,0,0,1-.74,1.8,2.55,2.55,0,0,1-3.52,0,2.36,2.36,0,0,1-.74-1.8,2.36,2.36,0,0,1,.74-1.8,2.55,2.55,0,0,1,3.52,0Z"/>
</svg>
