<svg xmlns="http://www.w3.org/2000/svg" viewBox="0 0 32 32" fill="currentColor">
  <title>trending up chart</title>
  <path d="M30.1,1.3H1.9a.7.7,0,0,0,0,1.41H3V23.16a.7.7,0,0,0,.7.7H15.3v5.43H12.58a.7.7,0,1,0,0,1.41h6.84a.7.7,0,1,0,0-1.41H16.7V23.86H28.34a.7.7,0,0,0,.7-.7V2.71h1a.7.7,0,0,0,0-1.41ZM27.64,22.45H4.36V2.71H27.64Zm-19.86-4a.7.7,0,0,1,0-1l5.73-5.73a.7.7,0,0,1,1,0l2.25,2.25,4-4h-.19a.7.7,0,0,1,0-1.41h1.86a.7.7,0,0,1,.7.7v1.86a.7.7,0,0,1-1.41,0v-.13l-4.49,4.49a.7.7,0,0,1-1,0L14,13.18,8.78,18.41a.7.7,0,0,1-1,0Z"/>
</svg>
