<svg xmlns="http://www.w3.org/2000/svg" viewBox="0 0 32 32">
  <title>icon-link</title>
  <path d="M10.76,30.87l-.29,0ZM9.65,31,10,31Zm1.68-.27.2,0ZM29.71,12a7.47,7.47,0,0,0,0-5.65,7.51,7.51,0,0,0-4.06-4.06,7.49,7.49,0,0,0-2.83-.55h-.21A7.46,7.46,0,0,0,20,2.29a7.34,7.34,0,0,0-2.43,1.62l-5.2,5.2a3.9,3.9,0,0,1,1.75,0l4.32-4.35a6.12,6.12,0,0,1,2-1.36,6.24,6.24,0,0,1,4.7,0,6.24,6.24,0,0,1,3.4,3.4,6.24,6.24,0,0,1,0,4.7,6.12,6.12,0,0,1-1.36,2l-4.1,4.1a6.12,6.12,0,0,1-2,1.36,6.25,6.25,0,0,1-2.35.46,6.14,6.14,0,0,1-3.24-.91,9.87,9.87,0,0,1-2.63-3.06l-.34,0a1.9,1.9,0,0,0-1,.25,10.1,10.1,0,0,0,1.92,2.79,7.43,7.43,0,0,0,5.26,2.18,7.44,7.44,0,0,0,4.94-1.88l.32-.3,4.1-4.1A7.34,7.34,0,0,0,29.71,12ZM19.33,23.17A5.35,5.35,0,0,1,17.74,23l-4.18,4.2a6.12,6.12,0,0,1-2,1.36,6.24,6.24,0,0,1-4.7,0,6.24,6.24,0,0,1-3.4-3.4,6.24,6.24,0,0,1,0-4.7,6.12,6.12,0,0,1,1.36-2l4.1-4.1a6.12,6.12,0,0,1,2-1.36,6.25,6.25,0,0,1,2.35-.46,6.14,6.14,0,0,1,3.24.91,6.3,6.3,0,0,1,1.89,1.79l.34,0a1.9,1.9,0,0,0,1-.25,7.39,7.39,0,0,0-1.18-1.53,7.43,7.43,0,0,0-5.12-2.18h-.14a7.44,7.44,0,0,0-4.94,1.88l-.32.3-4.1,4.1A7.29,7.29,0,0,0,2.29,20a7.51,7.51,0,0,0,0,5.65,7.49,7.49,0,0,0,4.06,4.06,7.47,7.47,0,0,0,5.65,0,7.34,7.34,0,0,0,2.43-1.63ZM22.39,1,22,1Zm-1.92.32.3-.08Zm1.09-.24-.32,0Z"/>
</svg>
