<svg xmlns="http://www.w3.org/2000/svg" viewBox="0 0 32 32" fill="currentColor">
  <title>chat</title>
  <path d="M30.07,1.25H12.81a.7.7,0,0,0-.7.7V12.13H1.93a.7.7,0,0,0-.7.7V25.77a.7.7,0,0,0,.7.7H3.77V30a.7.7,0,0,0,1.2.5L9,26.48H19.19a.7.7,0,0,0,.7-.7V15.6H23L27,19.67a.7.7,0,0,0,1.2-.5V15.6h1.84a.7.7,0,0,0,.7-.7V2A.7.7,0,0,0,30.07,1.25ZM18.48,25.07H8.75a.7.7,0,0,0-.5.21L5.18,28.34V25.77a.7.7,0,0,0-.7-.7H2.64V13.54H11.9L12.11,15v.08l0,.07,0,.06,0,.06,0,0,0,.06,0,0,.06,0,0,0,.07,0,0,0,.08,0h5.86ZM29.36,14.19H27.52a.7.7,0,0,0-.7.7v2.57L23.75,14.4a.7.7,0,0,0-.5-.21H13.52V2.66H29.36ZM15.68,5.41a.7.7,0,0,1,.7-.7h10.1a.7.7,0,0,1,0,1.41H16.39A.7.7,0,0,1,15.68,5.41Zm0,3a.7.7,0,0,1,.7-.7h10.1a.7.7,0,0,1,0,1.41H16.39A.7.7,0,0,1,15.68,8.41Zm0,3a.7.7,0,0,1,.7-.7h10.1a.7.7,0,0,1,0,1.41H16.39A.7.7,0,0,1,15.68,11.42Z"/>
</svg>
