<svg xmlns="http://www.w3.org/2000/svg" viewBox="0 0 32 32">
  <title>icon-small-business</title>
  <path d="M30.1,29.39h-.7V12.61s0,0,0,0A5.38,5.38,0,0,0,30.8,8.94a.71.71,0,0,0,0-.14l0-.06,0-.06h0l-2.81-7a.71.71,0,0,0-.65-.44H4.72a.71.71,0,0,0-.65.44l-2.81,7h0l0,.06,0,.06a.7.7,0,0,0,0,.14,5.38,5.38,0,0,0,1.41,3.63s0,0,0,0V29.39H1.9a.7.7,0,1,0,0,1.41H30.1a.7.7,0,0,0,0-1.41ZM2.67,9.65h7.86a4,4,0,0,1-7.86,0ZM25.4,12.94a4,4,0,0,1-3.93-3.29h7.86A4,4,0,0,1,25.4,12.94ZM26.8,2.61l2.26,5.63H21.28L20.15,2.61Zm-7,5.63H12.16l1.13-5.63h5.42Zm.09,1.41a4,4,0,0,1-7.86,0ZM5.2,2.61h6.65L10.72,8.24H2.94Zm7.19,26.79v-9a3.61,3.61,0,1,1,7.23,0v9Zm8.64,0v-9a5,5,0,1,0-10,0v9H4V13.69A5.39,5.39,0,0,0,11.3,11.6a5.39,5.39,0,0,0,9.4,0A5.4,5.4,0,0,0,28,13.69V29.39Z"/>
</svg>
