<svg xmlns="http://www.w3.org/2000/svg" viewBox="0 0 32 32">
  <title>icon-network</title>
  <path d="M16,1.2A14.8,14.8,0,1,0,30.8,16,14.82,14.82,0,0,0,16,1.2ZM27,23.58a19.21,19.21,0,0,0-3.29-1.82,18.84,18.84,0,0,0,.88-5.06h4.76A13.31,13.31,0,0,1,27,23.58ZM17,29.35l-.32,0V21.63a17.79,17.79,0,0,1,5.25,1A17.42,17.42,0,0,1,17,29.35Zm-2.06,0a17.42,17.42,0,0,1-4.88-6.68,17.74,17.74,0,0,1,5.21-1v7.73ZM2.62,16.7H7.38a18.84,18.84,0,0,0,.91,5.17,19.23,19.23,0,0,0-3.23,1.84A13.31,13.31,0,0,1,2.62,16.7ZM5.06,8.28a19.23,19.23,0,0,0,3.24,1.85,18.84,18.84,0,0,0-.93,5.17H2.62A13.31,13.31,0,0,1,5.06,8.28ZM15,2.64l.26,0v7.73a17.74,17.74,0,0,1-5.19-1A17.42,17.42,0,0,1,15,2.64Zm1.94,0a17.42,17.42,0,0,1,5,6.78,17.79,17.79,0,0,1-5.23.95V2.62Zm-.26,9.13a19.2,19.2,0,0,0,5.7-1,17.44,17.44,0,0,1,.8,4.55H16.7Zm-1.41,0V15.3H8.79a17.43,17.43,0,0,1,.83-4.64A19.15,19.15,0,0,0,15.3,11.77ZM8.79,16.7h6.5v3.52a19.15,19.15,0,0,0-5.69,1.12A17.43,17.43,0,0,1,8.79,16.7Zm7.91,3.52V16.7h6.5a17.43,17.43,0,0,1-.79,4.55A19.2,19.2,0,0,0,16.7,20.22Zm7.91-4.93a18.84,18.84,0,0,0-.89-5.05A19.21,19.21,0,0,0,27,8.42a13.31,13.31,0,0,1,2.34,6.87Zm1.56-8a17.79,17.79,0,0,1-2.92,1.61,18.77,18.77,0,0,0-3.78-5.85A13.42,13.42,0,0,1,26.17,7.3ZM12.53,3.06A18.77,18.77,0,0,0,8.8,8.8,17.81,17.81,0,0,1,5.94,7.17,13.41,13.41,0,0,1,12.53,3.06ZM5.94,24.83a17.81,17.81,0,0,1,2.84-1.62,18.78,18.78,0,0,0,3.69,5.71A13.41,13.41,0,0,1,5.94,24.83Zm13.59,4.09a18.78,18.78,0,0,0,3.74-5.82,17.8,17.8,0,0,1,2.91,1.6A13.42,13.42,0,0,1,19.53,28.92Z"/>
</svg>
