<svg xmlns="http://www.w3.org/2000/svg" viewBox="0 0 32 32" fill="currentColor">
  <title>bike</title>
  <path d="M20,8.8a2.9,2.9,0,0,0,2.11-.89h0A2.9,2.9,0,0,0,23,5.79a3,3,0,0,0-.88-2.13,2.93,2.93,0,0,0-4.26,0,3,3,0,0,0-.92,2.14,2.86,2.86,0,0,0,.93,2.12A3,3,0,0,0,20,8.8Zm-1.2-4.21A1.64,1.64,0,0,1,20,4.06a1.55,1.55,0,0,1,1.17.52,1.69,1.69,0,0,1,.51,1.21A1.6,1.6,0,0,1,21.18,7a1.64,1.64,0,0,1-2.39,0,1.54,1.54,0,0,1-.52-1.17A1.65,1.65,0,0,1,18.79,4.59ZM15.31,15.26l2-1.91.48.48c1.68,1.68,2.89,2.7,5.46,2.7h0A2.61,2.61,0,0,0,25.09,16a1.79,1.79,0,0,0,.57-1.38,1.71,1.71,0,0,0-.58-1.37,2.5,2.5,0,0,0-1.83-.44c-1.2,0-1.54-.35-2.52-1.34L18.18,8.93A2.89,2.89,0,0,0,15.92,8a4.91,4.91,0,0,0-3,1.75L10.31,12.3a3.24,3.24,0,0,0-1,2.32,2.81,2.81,0,0,0,1,2s2.1,1.82,2.82,2.49l.37.34c.67.62.69.63.69,1.32,0,.49-.25,2.23-.42,3.24a2.32,2.32,0,0,0,.31,1.74,2,2,0,0,0,1.45.79l.33,0a2,2,0,0,0,1.32-.45,2.1,2.1,0,0,0,.69-1.38s.43-3.06.54-3.94A4.33,4.33,0,0,0,17.08,17Zm1.83,5.35c-.1.88-.53,3.91-.54,4a.84.84,0,0,1-.23.5.82.82,0,0,1-.64.12c-.38,0-.49-.19-.52-.24a1,1,0,0,1-.09-.72c0-.28.44-2.75.44-3.5a2.51,2.51,0,0,0-1.12-2.3l-.36-.33c-.74-.69-2.77-2.45-2.85-2.52a1.49,1.49,0,0,1-.57-1,1.93,1.93,0,0,1,.6-1.34l2.59-2.59A3.61,3.61,0,0,1,16,9.32h.07a1.64,1.64,0,0,1,1.18.56l2.54,2.54c1,1,1.71,1.73,3.51,1.73h.11a1.27,1.27,0,0,1,.82.13s.12.1.12.36a.48.48,0,0,1-.13.39,1.41,1.41,0,0,1-.91.2c-2.08,0-3-.67-4.6-2.31l-1.41-1.41-3.85,3.78.48.47,2.24,2.21A3,3,0,0,1,17.14,20.61ZM7,17.26a6,6,0,1,0,6,6A6,6,0,0,0,7,17.26ZM7,27.94a4.67,4.67,0,1,1,4.67-4.67A4.68,4.68,0,0,1,7,27.94ZM25,17.27a6,6,0,1,0,6,6A6,6,0,0,0,25,17.27Zm0,10.67a4.67,4.67,0,1,1,4.67-4.67A4.68,4.68,0,0,1,25,27.94Z"/>
</svg>
