<svg xmlns="http://www.w3.org/2000/svg" viewBox="0 0 32 32" fill="currentColor">
  <title>grid</title>
  <path d="M8.86,9.57H1.71A.71.71,0,0,1,1,8.86V1.71A.71.71,0,0,1,1.71,1H8.86a.71.71,0,0,1,.71.71V8.86A.71.71,0,0,1,8.86,9.57ZM2.43,8.14H8.14V2.43H2.43ZM19.57,9.57H12.43a.71.71,0,0,1-.71-.71V1.71A.71.71,0,0,1,12.43,1h7.14a.71.71,0,0,1,.71.71V8.86A.71.71,0,0,1,19.57,9.57ZM13.14,8.14h5.71V2.43H13.14ZM30.29,9.57H23.14a.71.71,0,0,1-.71-.71V1.71A.71.71,0,0,1,23.14,1h7.14a.71.71,0,0,1,.71.71V8.86A.71.71,0,0,1,30.29,9.57ZM23.86,8.14h5.71V2.43H23.86Zm-15,12.14H1.71A.71.71,0,0,1,1,19.57V12.43a.71.71,0,0,1,.71-.71H8.86a.71.71,0,0,1,.71.71v7.14A.71.71,0,0,1,8.86,20.29ZM2.43,18.86H8.14V13.14H2.43Zm17.14,1.43H12.43a.71.71,0,0,1-.71-.71V12.43a.71.71,0,0,1,.71-.71h7.14a.71.71,0,0,1,.71.71v7.14A.71.71,0,0,1,19.57,20.29Zm-6.43-1.43h5.71V13.14H13.14Zm17.14,1.43H23.14a.71.71,0,0,1-.71-.71V12.43a.71.71,0,0,1,.71-.71h7.14a.71.71,0,0,1,.71.71v7.14A.71.71,0,0,1,30.29,20.29Zm-6.43-1.43h5.71V13.14H23.86ZM8.86,31H1.71A.71.71,0,0,1,1,30.29V23.14a.71.71,0,0,1,.71-.71H8.86a.71.71,0,0,1,.71.71v7.14A.71.71,0,0,1,8.86,31ZM2.43,29.57H8.14V23.86H2.43ZM19.57,31H12.43a.71.71,0,0,1-.71-.71V23.14a.71.71,0,0,1,.71-.71h7.14a.71.71,0,0,1,.71.71v7.14A.71.71,0,0,1,19.57,31Zm-6.43-1.43h5.71V23.86H13.14ZM30.29,31H23.14a.71.71,0,0,1-.71-.71V23.14a.71.71,0,0,1,.71-.71h7.14a.71.71,0,0,1,.71.71v7.14A.71.71,0,0,1,30.29,31Zm-6.43-1.43h5.71V23.86H23.86Z"/>
</svg>
