<svg xmlns="http://www.w3.org/2000/svg" viewBox="0 0 32 32">
  <title>icon-camera</title>
  <path d="M30.1,6.48H20.23V3.66a.7.7,0,0,0-.7-.7h-7a.7.7,0,0,0-.7.7V6.48H1.9a.7.7,0,0,0-.7.7V28.34a.7.7,0,0,0,.7.7H30.1a.7.7,0,0,0,.7-.7V7.19A.7.7,0,0,0,30.1,6.48ZM13.18,4.37h5.64V6.48H13.18ZM29.39,27.63H2.61V7.89H29.39ZM8.25,17.76A7.75,7.75,0,1,0,16,10,7.76,7.76,0,0,0,8.25,17.76Zm14.1,0A6.34,6.34,0,1,1,16,11.42,6.35,6.35,0,0,1,22.34,17.76Zm-10.57,0A4.23,4.23,0,1,0,16,13.53,4.23,4.23,0,0,0,11.77,17.76Zm7,0A2.82,2.82,0,1,1,16,14.94,2.82,2.82,0,0,1,18.82,17.76Z"/>
</svg>
