<svg xmlns="http://www.w3.org/2000/svg" viewBox="0 0 32 32">
  <title>icon-paw-print</title>
  <path d="M20.88,5.25a1.14,1.14,0,0,1,.81.29,2.22,2.22,0,0,1,.64.93,4,4,0,0,1,.22,1.36,5.35,5.35,0,0,1-.39,1.91A4.31,4.31,0,0,1,21,11.39a1.85,1.85,0,0,1-1.31.56,1.14,1.14,0,0,1-.81-.3,2.19,2.19,0,0,1-.63-.93,4,4,0,0,1-.22-1.36,5.32,5.32,0,0,1,.38-1.91,4.38,4.38,0,0,1,1.12-1.65,1.84,1.84,0,0,1,1.31-.56m-9.75,0a1.85,1.85,0,0,1,1.31.56,4.38,4.38,0,0,1,1.12,1.65,5.33,5.33,0,0,1,.38,1.92,4,4,0,0,1-.22,1.36,2.19,2.19,0,0,1-.64.93,1.14,1.14,0,0,1-.81.29A1.85,1.85,0,0,1,11,11.39,4.31,4.31,0,0,1,9.84,9.74a5.35,5.35,0,0,1-.38-1.91,4,4,0,0,1,.22-1.36,2.2,2.2,0,0,1,.63-.93,1.14,1.14,0,0,1,.81-.3m15.36,7.58a.9.9,0,0,1,.84.4,2.44,2.44,0,0,1,.43,1.46,4.82,4.82,0,0,1-1.68,3.51,2.13,2.13,0,0,1-1.4.57.9.9,0,0,1-.84-.4,2.41,2.41,0,0,1-.42-1.45A4.62,4.62,0,0,1,23.85,15a4.52,4.52,0,0,1,1.24-1.65,2.13,2.13,0,0,1,1.4-.57m-21,0a2.13,2.13,0,0,1,1.4.57A4.55,4.55,0,0,1,8.16,15a4.64,4.64,0,0,1,.44,1.87,2.41,2.41,0,0,1-.42,1.45.9.9,0,0,1-.84.4,2.13,2.13,0,0,1-1.4-.57,4.82,4.82,0,0,1-1.67-3.51,2.44,2.44,0,0,1,.43-1.46.9.9,0,0,1,.84-.4M16,17.75A5.86,5.86,0,0,1,19.26,19a12.72,12.72,0,0,1,3.26,3.37,6.25,6.25,0,0,1,1.23,3.29,1.28,1.28,0,0,1-.11.59.38.38,0,0,1-.19.18,2.73,2.73,0,0,1-.69.22,6.08,6.08,0,0,1-1,.07,7.64,7.64,0,0,1-2.49-.62A10,10,0,0,0,16,25.34a11,11,0,0,0-3.42.77,8.75,8.75,0,0,1-2.72.62c-1.61,0-1.61-.57-1.61-1A5.3,5.3,0,0,1,9,23.3a12.19,12.19,0,0,1,2-2.73,11.61,11.61,0,0,1,2.65-2.06,5,5,0,0,1,2.4-.76M20.88,4a3.09,3.09,0,0,0-2.16.9A5.66,5.66,0,0,0,17.28,7a6.54,6.54,0,0,0-.47,2.37,5.27,5.27,0,0,0,.3,1.77,3.44,3.44,0,0,0,1,1.45,2.39,2.39,0,0,0,1.64.61,3.1,3.1,0,0,0,2.16-.9,5.59,5.59,0,0,0,1.44-2.12,6.56,6.56,0,0,0,.47-2.36,5.26,5.26,0,0,0-.3-1.77,3.47,3.47,0,0,0-1-1.45A2.39,2.39,0,0,0,20.88,4ZM11.13,4a2.39,2.39,0,0,0-1.64.61,3.45,3.45,0,0,0-1,1.45,5.26,5.26,0,0,0-.3,1.77,6.56,6.56,0,0,0,.47,2.36,5.59,5.59,0,0,0,1.44,2.12,3.1,3.1,0,0,0,2.16.9,2.39,2.39,0,0,0,1.64-.61,3.44,3.44,0,0,0,1-1.45,5.27,5.27,0,0,0,.3-1.77A6.54,6.54,0,0,0,14.72,7,5.66,5.66,0,0,0,13.29,4.9,3.09,3.09,0,0,0,11.13,4Zm15.36,7.58a3.35,3.35,0,0,0-2.21.87,6.1,6.1,0,0,0-2.12,4.48,3.65,3.65,0,0,0,.66,2.17,2.15,2.15,0,0,0,1.86.92,3.36,3.36,0,0,0,2.21-.87A6.07,6.07,0,0,0,29,14.69a3.68,3.68,0,0,0-.66-2.18,2.14,2.14,0,0,0-1.86-.93Zm-21,0a2.14,2.14,0,0,0-1.86.93A3.68,3.68,0,0,0,3,14.69a6.07,6.07,0,0,0,2.12,4.46A3.35,3.35,0,0,0,7.33,20a2.15,2.15,0,0,0,1.86-.92,3.65,3.65,0,0,0,.66-2.17,6.1,6.1,0,0,0-2.12-4.48,3.35,3.35,0,0,0-2.21-.87ZM16,16.5a6.18,6.18,0,0,0-3,.92,12.8,12.8,0,0,0-2.93,2.28,13.38,13.38,0,0,0-2.18,3,6.47,6.47,0,0,0-.87,3Q7,28,9.86,28a10.11,10.11,0,0,0,3.13-.7,10,10,0,0,1,3-.7,9,9,0,0,1,2.85.7,9,9,0,0,0,2.93.7A7.28,7.28,0,0,0,23,27.91a4,4,0,0,0,1-.31,1.63,1.63,0,0,0,.76-.7A2.43,2.43,0,0,0,25,25.7a7.4,7.4,0,0,0-1.44-4A13.9,13.9,0,0,0,20,18a7,7,0,0,0-4-1.52Z"/>
</svg>
