<svg xmlns="http://www.w3.org/2000/svg" viewBox="0 0 32 32" fill="currentColor">
  <title>document</title>
  <path d="M25.86,10.29v0a.7.7,0,0,0,0-.16l0,0a.7.7,0,0,0-.09-.15h0l-7-8.46-.1-.1,0,0-.1-.06h0l-.13,0H6.84a.7.7,0,0,0-.7.7V30.1a.7.7,0,0,0,.7.7H25.16a.7.7,0,0,0,.7-.7V10.36A.68.68,0,0,0,25.86,10.29Zm-7-6.44,1.44,1.73,3.4,4.08H18.82ZM7.54,29.39V2.61h9.87v7.75a.7.7,0,0,0,.7.7h6.34V29.39Zm14.73-14.8a.7.7,0,0,1-.7.7H10.43a.7.7,0,0,1,0-1.41H21.57A.7.7,0,0,1,22.27,14.59Zm0,3.85a.7.7,0,0,1-.7.7H10.43a.7.7,0,0,1,0-1.41H21.57A.7.7,0,0,1,22.27,18.44Zm0,3.85a.7.7,0,0,1-.7.7H10.43a.7.7,0,0,1,0-1.41H21.57A.7.7,0,0,1,22.27,22.3Zm0,3.85a.7.7,0,0,1-.7.7H10.43a.7.7,0,0,1,0-1.41H21.57A.7.7,0,0,1,22.27,26.15Z"/>
</svg>
