<svg xmlns="http://www.w3.org/2000/svg" viewBox="0 0 32 32">
  <title>icon-directory</title>
  <path d="M27.48,1.2H6.33a.7.7,0,0,0-.7.7V5.52H4.52a.7.7,0,0,0,0,1.41h1.1V15H4.52a.7.7,0,0,0,0,1.41h1.1v8.08H4.52a.7.7,0,0,0,0,1.41h1.1v4.2a.7.7,0,0,0,.7.7H27.48a.7.7,0,0,0,.7-.7V1.9A.7.7,0,0,0,27.48,1.2Zm-.7,28.2H7V25.9H8a.7.7,0,0,0,0-1.41H7V16.42H8A.7.7,0,0,0,8,15H7V6.93H8A.7.7,0,0,0,8,5.52H7V2.61H26.77Zm-9.45-8.9a8,8,0,0,0,2.7-.44l-.26-1a7.15,7.15,0,0,1-2.48.45,3.78,3.78,0,0,1-2.66-.87,3.79,3.79,0,0,1-1.19-2.77,4,4,0,0,1,1.09-2.73A3.71,3.71,0,0,1,17.18,12a3.49,3.49,0,0,1,2.51,1,3.06,3.06,0,0,1,.8,2.11,3,3,0,0,1-.73,2,.76.76,0,0,1-.44.21.3.3,0,0,1-.23-.08.54.54,0,0,1-.12-.39,2.63,2.63,0,0,1,.06-.47l.55-2.8H18.41l-.11.58a1.46,1.46,0,0,0-1.37-.72,2.19,2.19,0,0,0-1.64.7,2.84,2.84,0,0,0-.76,2.06,2.15,2.15,0,0,0,.58,1.61,1.8,1.8,0,0,0,1.38.55,1.92,1.92,0,0,0,1.68-.88.91.91,0,0,0,.32.51,1.11,1.11,0,0,0,.74.26,1.79,1.79,0,0,0,1.28-.55,3.74,3.74,0,0,0,1-2.66,3.8,3.8,0,0,0-1.14-2.84A4.36,4.36,0,0,0,17.19,11a4.79,4.79,0,0,0-3.5,1.34,4.63,4.63,0,0,0-1.39,3.45,5,5,0,0,0,1.28,3.37A4.9,4.9,0,0,0,17.32,20.5Zm.21-3.66a1,1,0,0,1-.74.32.9.9,0,0,1-.65-.25,1.1,1.1,0,0,1-.29-.8,1.7,1.7,0,0,1,.48-1.19,1,1,0,0,1,.77-.32.84.84,0,0,1,.59.21,1.12,1.12,0,0,1,.3.84A1.74,1.74,0,0,1,17.52,16.84Z"/>
</svg>
