<svg xmlns="http://www.w3.org/2000/svg" viewBox="0 0 32 32" fill="currentColor">
  <title>drag</title>
  <path d="M30.6,16.5l-2.82,2.82a.7.7,0,0,1-1-1L28.4,16.7H16.7V28.4l1.62-1.62a.7.7,0,0,1,1,1L16.5,30.6l-.11.09-.05,0-.07,0-.07,0-.06,0h-.28l-.06,0-.07,0-.07,0-.05,0-.11-.09-2.82-2.82a.7.7,0,0,1,1-1L15.3,28.4V16.7H3.6l1.62,1.62a.7.7,0,1,1-1,1L1.4,16.5l-.09-.11,0-.05,0-.07,0-.07,0-.06a.71.71,0,0,1,0-.28l0-.06,0-.07,0-.07,0-.05.09-.11,2.82-2.82a.7.7,0,0,1,1,1L3.6,15.29H15.3V3.6L13.68,5.22a.7.7,0,0,1-1-1L15.5,1.4l.11-.09.05,0,.07,0,.07,0,.06,0a.71.71,0,0,1,.28,0l.06,0,.07,0,.07,0,.05,0,.11.09,2.82,2.82a.7.7,0,1,1-1,1L16.7,3.6V15.29H28.4l-1.62-1.62a.7.7,0,0,1,1-1L30.6,15.5l.09.11,0,.05,0,.07,0,.07,0,.06a.71.71,0,0,1,0,.28l0,.06,0,.07,0,.07,0,.05Z"/>
</svg>
