<svg xmlns="http://www.w3.org/2000/svg" viewBox="0 0 32 32">
  <title>icon-bullhorn</title>
  <path d="M31.52,14a3.62,3.62,0,0,0-3-3.56V5.28A2.44,2.44,0,0,0,25.87,3h-.25l-.18.17c-.07.06-7,6.5-12.54,6.5H2.74l-.14.08c-.09,0-2.12,1.22-2.12,4.55s2,4.5,2.12,4.55l.14.08H5.16A17.94,17.94,0,0,0,6.33,28l.09.19.19.1A6.49,6.49,0,0,0,9.37,29a4.25,4.25,0,0,0,1.09-.14,7.55,7.55,0,0,0,3-1.65l.43-.41-.39-.45S10.65,23,11.4,18.91a19.41,19.41,0,0,1,14.15,6.35l.2.26.32,0a2.38,2.38,0,0,0,2.44-2.22V17.59A3.62,3.62,0,0,0,31.52,14ZM10.9,17.65h-.49l-.12.47a10.64,10.64,0,0,0,1.89,8.55,6.28,6.28,0,0,1-2,1,4.5,4.5,0,0,1-2.75-.36,16.88,16.88,0,0,1-.87-8.92l.15-.75H3.09a4,4,0,0,1-1.36-3.37A4,4,0,0,1,3.09,10.9h9.19v6.8C11.82,17.67,11.37,17.65,10.9,17.65Zm16.38,5.63c0,.63-.59.85-1,.93a20.35,20.35,0,0,0-12.78-6.4v-7c5.38-.39,11.38-5.54,12.57-6.61.4,0,1.18.24,1.18,1Zm1.25-7V11.75a2.36,2.36,0,0,1,0,4.56Z"/>
</svg>
