<svg xmlns="http://www.w3.org/2000/svg" viewBox="0 0 32 32" fill="currentColor">
  <title>ticket</title>
  <path d="M21.91,15,15,21.91,10.08,17l6.9-6.9L21.91,15m1.15-.67-5.4-5.4a1,1,0,0,0-.64-.3.7.7,0,0,0-.59.19L8.82,16.43a.7.7,0,0,0-.2.59,1,1,0,0,0,.32.64h0l5.4,5.4a1,1,0,0,0,.64.3.7.7,0,0,0,.59-.19l7.61-7.61a.7.7,0,0,0,.2-.59,1,1,0,0,0-.32-.64Zm6.17-3.28L26.78,8.62l-.45.45a2.41,2.41,0,0,1-4.12-1.71,2.3,2.3,0,0,1,.7-1.71l.45-.45L20.93,2.77a2.68,2.68,0,0,0-3.77,0L2.77,17.14a2.69,2.69,0,0,0,0,3.77h0L5.2,23.36l.45-.45a2.3,2.3,0,0,1,1.71-.7,2.42,2.42,0,0,1,1.71,4.12l-.45.45,2.45,2.45a2.69,2.69,0,0,0,3.77,0l14.39-14.4a2.69,2.69,0,0,0,0-3.77ZM22,10a3.71,3.71,0,0,0,4.73.41L28.33,12a1.41,1.41,0,0,1,0,2L13.94,28.33a1.41,1.41,0,0,1-2,0l-1.59-1.59a3.68,3.68,0,0,0-3-5.8,3.56,3.56,0,0,0-2.12.66L3.67,20h0a1.42,1.42,0,0,1,0-2L18.06,3.67a1.41,1.41,0,0,1,2,0L21.6,5.24a3.56,3.56,0,0,0-.66,2.12A3.56,3.56,0,0,0,22,10Z"/>
</svg>
