<svg xmlns="http://www.w3.org/2000/svg" viewBox="0 0 107.19 114"><title>fgcc-watermark</title><rect y="0.12" width="107.19" height="113.88" fill="#fff"/><path d="M60,0c0,12.81-21.32,24.88-33.87,29.88,5.31,8.77,11.52,18.47,18.19,27.74C49.55,65,54.68,72,59.93,78c8.26-9.75,13.87-20.61,13.87-27.67C73.79,40,62.33,37.8,62.33,37.8H55.22V30.4H107V0ZM79.33,60.69A106.13,106.13,0,0,1,65.43,83.91C73.49,91.84,82,97,92,97c12.94,0,15-16.25,15-16.25v-43h-3.91c-11.78,0-23.76,22.89-23.76,22.89M41.2,0h-32s5,9.7,12.74,23C29.2,20.52,41.2,14.32,41.2,0m4.92,100.7a118.64,118.64,0,0,1-33,13.3H62.72c-5.77,0-16.6-13.3-16.6-13.3M0,91.08V40.53l3.69-1.58c0,2.21,11.91,24.88,27.67,43.46,3.28,3.87,9.23,11.15,9.23,11.15S29.29,99.75,20,99.75c-17.61,0-20-8.67-20-8.67" transform="translate(0.09)" fill="#cbcdce"/></svg>