<svg xmlns="http://www.w3.org/2000/svg" xmlns:xlink="http://www.w3.org/1999/xlink" viewBox="0 0 335.27 108"><defs><clipPath id="a" transform="translate(0 0)"><rect width="335.27" height="108" fill="none"/></clipPath></defs><title>fgcc-logo</title><polygon points="71.89 28.59 98.72 28.59 98.72 34.18 78.22 34.18 78.22 43.71 96.4 43.71 96.4 49.3 78.22 49.3 78.22 63.53 71.89 63.53 71.89 28.59" fill="#414550"/><polygon points="105.67 28.59 112 28.59 112 57.94 130.95 57.94 130.95 63.53 105.67 63.53 105.67 28.59" fill="#414550"/><rect x="137.9" y="28.59" width="6.33" height="34.94" fill="#414550"/><polygon points="153.86 28.59 159.73 28.59 179.04 52.75 179.04 28.59 185.28 28.59 185.28 63.53 179.97 63.53 160.09 38.67 160.09 63.53 153.86 63.53 153.86 28.59" fill="#414550"/><polygon points="203.4 34.28 191.97 34.28 191.97 28.59 221.22 28.59 221.22 34.28 209.78 34.28 209.78 63.53 203.4 63.53 203.4 34.28" fill="#414550"/><g clip-path="url(#a)"><path d="M0,90.63v-.1c0-9.46,7.47-17.47,18-17.47,6.07,0,9.81,1.64,13.39,4.58l-3.89,4.49a13.89,13.89,0,0,0-9.76-3.62c-6.42,0-11.3,5.45-11.3,11.92v.1c0,6.95,4.73,12.06,11.85,12.06A14.53,14.53,0,0,0,26.69,100V93.71H17.78V88.55H32.61v14.19A22.63,22.63,0,0,1,18.08,108C7.17,108,0,100.47,0,90.63" transform="translate(0 0)" fill="#414550"/></g><polygon points="37.95 73.64 37.95 107.42 64.04 107.42 64.04 102.11 44.08 102.11 44.08 93.04 61.55 93.04 61.55 87.73 44.08 87.73 44.08 78.95 63.79 78.95 63.79 73.64 37.95 73.64" fill="#414550"/><polygon points="92.87 73.64 92.87 97 74.2 73.64 68.52 73.64 68.52 107.42 74.55 107.42 74.55 83.39 93.76 107.42 98.89 107.42 98.89 73.64 92.87 73.64" fill="#414550"/><polygon points="105.12 73.64 105.12 107.42 131.21 107.42 131.21 102.11 111.25 102.11 111.25 93.04 128.72 93.04 128.72 87.73 111.25 87.73 111.25 78.95 130.96 78.95 130.96 73.64 105.12 73.64" fill="#414550"/><g clip-path="url(#a)"><path d="M133.33,102.5,137,98.25c3.33,2.8,6.72,4.39,11,4.39,3.78,0,6.17-1.74,6.17-4.25v-.1c0-2.41-1.39-3.72-7.87-5.16-7.42-1.74-11.6-3.86-11.6-10.09V83c0-5.79,5-9.8,11.9-9.8a19.7,19.7,0,0,1,12.65,4.25L156,81.89a16.14,16.14,0,0,0-9.46-3.47c-3.59,0-5.68,1.79-5.68,4v.1c0,2.61,1.59,3.76,8.31,5.31,7.37,1.74,11.15,4.3,11.15,9.89v.1c0,6.32-5.13,10.09-12.45,10.09a21.86,21.86,0,0,1-14.54-5.41" transform="translate(0 0)" fill="#414550"/></g><polygon points="164.56 73.64 164.56 107.42 190.65 107.42 190.65 102.11 170.68 102.11 170.68 93.04 188.16 93.04 188.16 87.73 170.68 87.73 170.68 78.95 190.4 78.95 190.4 73.64 164.56 73.64" fill="#414550"/><polygon points="195.13 73.64 195.13 107.42 221.22 107.42 221.22 102.11 201.25 102.11 201.25 93.04 218.73 93.04 218.73 87.73 201.25 87.73 201.25 78.95 220.97 78.95 220.97 73.64 195.13 73.64" fill="#414550"/><g clip-path="url(#a)"><path d="M287.57,103.74l-1.43-1c-.55-.39-1.09-.8-1.64-1.23a69.92,69.92,0,0,1-6.24-5.3l-.17-.18q-11.74,7.09-20.45,9.71A62,62,0,0,1,245.86,108h48c-2.17-1.3-4.1-2.68-6.31-4.26m-34.51-8.53a25.43,25.43,0,0,1-17.2-6.46V40.17l.36-.26.06,0c7.63,12.53,12.85,20.9,15.78,25s9.38,12.28,19.33,24.52q-9.45,5.83-18.34,5.83m5.82-66.16q16.23,26.33,31.9,44.52c8.37-10.57,12.74-20.63,12.74-26.48a8.7,8.7,0,0,0-3.76-7.31Q296,37,286.28,36.64v-8h49V0H292.7a28.36,28.36,0,0,1-6.83,12.35q-7.38,8.28-27,16.7m65,10.68c2.66-1.79,6.65-2.86,11.35-3.17V78.32a19.19,19.19,0,0,1-4.34,10.17,12.22,12.22,0,0,1-9.5,4.3A30.83,30.83,0,0,1,308.84,89a68.47,68.47,0,0,1-11.74-9.7c4.76-6.43,9.66-15.4,14.31-23.19Q319.1,43,323.91,39.73M269.24,11.42A22.23,22.23,0,0,0,273.07,0H245.22c1.16,6,4.32,13.18,9.49,21.75Q265.25,17,269.24,11.42" transform="translate(0 0)" fill="#0f4466"/></g></svg>