<svg xmlns="http://www.w3.org/2000/svg"><symbol id="tagline" width="236" height="24" viewBox="0 0 236.1 24"><title>See What's Possible</title><path d="M12.54.52h2.74L14.12,6.66H11.35c0-.26.05-.52.05-.8A2.89,2.89,0,0,0,8.54,2.68,2.12,2.12,0,0,0,6.27,4.83c0,.9.54,1.57,1.93,2.48l2.24,1.45a5.23,5.23,0,0,1,2.92,4.57A5.45,5.45,0,0,1,7.69,19,4.91,4.91,0,0,1,3.3,16.85l-.41,1.75H0l1.24-6.5H4.18c0,.31-.05.47-.05.75a3,3,0,0,0,3.1,3.28,2.48,2.48,0,0,0,2.61-2.48c0-1.24-1-1.94-2-2.56L6.17,10C4.08,8.62,2.68,7.46,2.68,5.19A5.2,5.2,0,0,1,8.23,0a4.44,4.44,0,0,1,4,2ZM27.77,12a7.71,7.71,0,0,0,.18-2c0-3.33-1.94-5.23-5.27-5.23-3.79,0-6,2.37-6.89,5.85a12.37,12.37,0,0,0-.39,2.91c0,3.43,2.3,5.35,5.65,5.35A6.17,6.17,0,0,0,27.38,14H23.92c-.49,2-1.24,2.35-2.74,2.35s-2.37-1.25-2.37-2.75A11.57,11.57,0,0,1,19,12ZM22.58,7.18A2.39,2.39,0,0,1,25,9.68V10H19.36C19.85,9,20.87,7.18,22.58,7.18ZM41.89,12a7.71,7.71,0,0,0,.18-2c0-3.33-1.94-5.23-5.27-5.23-3.79,0-6,2.37-6.89,5.85a12.37,12.37,0,0,0-.39,2.91c0,3.43,2.3,5.35,5.65,5.35A6.17,6.17,0,0,0,41.51,14H38c-.49,2-1.24,2.35-2.74,2.35s-2.37-1.25-2.37-2.75A11.57,11.57,0,0,1,33.12,12ZM36.64,7.18A2.34,2.34,0,0,1,39,9.68V10H33.48C34,9,34.94,7.18,36.64,7.18ZM72,7.9l.49-2.66H66.72L66.23,7.9h1.39l-3.25,7.36-.57-10h-4l-4.7,10s-.18-5.55-.23-7.3h1.19l.49-2.66H50.72L50.23,7.9h1.24l.77,10.71h3.95L61,8.62l.65,10h3.92L70.85,7.9Zm11.8,7.46a5.07,5.07,0,0,1,.13-.88L84.85,10a9.61,9.61,0,0,0,.21-1.7c0-2.24-1.58-3.43-3.72-3.43a4.86,4.86,0,0,0-3.51,1.5L79,.39H73.75L73.23,3H75l-2.42,12.9H70.86l-.52,2.66h6.94l.52-2.66H76l.72-3.66c.36-1.83.9-4.64,3.15-4.64a1.41,1.41,0,0,1,1.5,1.6,8.2,8.2,0,0,1-.18,1.57l-.7,3.59a11.49,11.49,0,0,0-.26,2.09c0,1.81,1,2.35,2.63,2.35a11.54,11.54,0,0,0,2.3-.23L85.67,16a4.78,4.78,0,0,1-1,.15.7.7,0,0,1-.8-.77m15.38,0a3.64,3.64,0,0,1,.08-.74L101.18,5H97.93l-.39,1.64a3.68,3.68,0,0,0-3.48-1.9c-4.7,0-6.71,4.75-6.71,8.83C87.35,16.51,88.8,19,92,19a4.5,4.5,0,0,0,3.74-1.67c.15,1.37,1.42,1.6,2.58,1.6a10.07,10.07,0,0,0,2.32-.33l.49-2.48a4.56,4.56,0,0,1-1,.16A.77.77,0,0,1,99.22,15.38ZM92.9,16.49c-1.65,0-1.93-1.88-1.93-3.15,0-2,.85-6.07,3.43-6.07,1.68,0,2.27,1.39,2.27,2.86C96.67,12.36,95.74,16.49,92.9,16.49ZM109.62,1.42l-3.51.75-.59,3.07h-1.86l-.51,2.66h1.75l-1.26,6.81a11.11,11.11,0,0,0-.26,1.86c0,1.83,1.32,2.3,2.92,2.3A13.49,13.49,0,0,0,109,18.5l.52-2.66a6.42,6.42,0,0,1-1.57.21c-.52,0-.9-.21-.9-.77a3.89,3.89,0,0,1,.08-.54l1.32-6.84h2.5l.52-2.66H108.9Zm6.06-1-3.25,6.37H115L119.58.39Zm11,6.12A4.16,4.16,0,0,0,123,4.83c-3.33,0-4.75,2.27-4.75,4.28s1.47,2.87,2.81,3.54l1.86.9c.9.44,1.42.88,1.42,1.57,0,1-.88,1.52-1.94,1.52-2.17,0-2.3-2-2.35-2.79h-2.79l-.9,4.75h2.38l.33-1.24a4.21,4.21,0,0,0,3.74,1.6c3.74,0,4.93-2.53,4.93-4.44,0-2.06-1.65-3-2.81-3.59l-1.73-.83c-.85-.41-1.47-.75-1.47-1.47a1.61,1.61,0,0,1,1.78-1.47c1.65,0,2.3,1.63,2.3,2.74h2.63l.9-4.67H127Zm19.69-1.63a4.31,4.31,0,0,0-3.79,1.76L142.78,5h-4.57l-.49,3h1.63l-2.61,13h-1.63l-.49,3h6.92l.52-3h-1.91l.88-4.26a7.86,7.86,0,0,0,.57,1,3.86,3.86,0,0,0,2.94,1.17,5.46,5.46,0,0,0,3.64-1.18c2-1.62,3-5.17,3-7.7C151.22,7,149.57,4.88,146.42,4.88ZM144,16.49c-2.11,0-2.11-2.58-2.11-3.07,0-1.65.88-6,3.79-6,2,0,2,2.35,2,2.84C147.66,11.92,146.94,16.49,144,16.49ZM160,4.85c-4.88,0-7.17,4.39-7.17,8.67,0,3.54,2.24,5.45,5.7,5.45,4.75,0,7.15-4.18,7.15-8.49C165.72,6.84,163.63,4.85,160,4.85Zm-1.42,11.53c-1.73,0-2.22-1.5-2.22-3,0-2.09.77-6,3.46-6,1.76,0,2.32,1.34,2.32,2.92C162.19,12.49,161.44,16.39,158.62,16.39ZM176.88,6.5a4.17,4.17,0,0,0-3.69-1.68c-3.33,0-4.75,2.27-4.75,4.28s1.47,2.87,2.81,3.54l1.86.9c.9.44,1.42.88,1.42,1.57,0,1-.88,1.52-1.94,1.52-2.17,0-2.3-2-2.35-2.79h-2.79l-.9,4.75h2.38l.34-1.24A4.21,4.21,0,0,0,173,19c3.74,0,4.93-2.53,4.93-4.44,0-2.06-1.65-3-2.81-3.59l-1.73-.83c-.85-.41-1.47-.75-1.47-1.47a1.61,1.61,0,0,1,1.78-1.47c1.65,0,2.3,1.63,2.3,2.74h2.63l.9-4.67h-2.35Zm13.05,0a4.16,4.16,0,0,0-3.69-1.68c-3.33,0-4.75,2.27-4.75,4.28S183,12,184.3,12.65l1.86.9c.9.44,1.42.88,1.42,1.57,0,1-.88,1.52-1.94,1.52-2.17,0-2.3-2-2.35-2.79h-2.79l-.9,4.75H182l.34-1.24a4.21,4.21,0,0,0,3.74,1.6c3.74,0,4.93-2.53,4.93-4.44,0-2.06-1.65-3-2.81-3.59l-1.73-.83c-.85-.41-1.47-.75-1.47-1.47a1.61,1.61,0,0,1,1.78-1.47c1.65,0,2.3,1.63,2.3,2.74h2.63l.9-4.67h-2.35ZM196.19.39l-.57,3h4.08l.57-3Zm3.17,4.85h-5.14l-.52,2.66h1.63l-1.32,7a9.91,9.91,0,0,0-.23,1.75c0,1.63,1.11,2.12,2.55,2.12a9.46,9.46,0,0,0,2.43-.34l.46-2.5a3.1,3.1,0,0,1-1,.16c-.54,0-.82-.23-.82-.77a3.23,3.23,0,0,1,.1-.7Zm10.45-.41a4.41,4.41,0,0,0-3.2,1L207.73,0h-5.27l-.52,3h1.7l-3,16H204l.39-1.87c.8,1.52,1.89,1.94,3.59,1.94,4.54,0,6.5-5,6.5-8.85C214.46,7.17,213.07,4.83,209.82,4.83Zm-2.43,11.67c-1.55,0-2.14-1.29-2.14-2.92,0-2.94,1.39-6.22,3.74-6.22,1.32,0,1.91,1.06,1.91,2.94S209.92,16.49,207.39,16.49ZM222.82.39h-5.24L217.09,3h1.7L216.6,14.58a10.24,10.24,0,0,0-.26,2c0,1.65,1.19,2.27,2.66,2.27a13.9,13.9,0,0,0,2.5-.34L222,16a7.67,7.67,0,0,1-1.08.13c-.54,0-.9-.21-.9-.83a9,9,0,0,1,.21-1.21ZM235.92,12a7.66,7.66,0,0,0,.18-2c0-3.33-1.94-5.23-5.26-5.23-3.79,0-6,2.37-6.89,5.85a12.32,12.32,0,0,0-.39,2.91c0,3.43,2.3,5.35,5.65,5.35A6.17,6.17,0,0,0,235.53,14h-3.46c-.49,2-1.24,2.35-2.74,2.35S227,15.11,227,13.61a11.53,11.53,0,0,1,.18-1.61Zm-5.27-4.82A2.33,2.33,0,0,1,233,9.68V10h-5.49C228,9,229,7.18,230.65,7.18Z" fill="#f2f5f9"/></symbol></svg>