<svg xmlns="http://www.w3.org/2000/svg" viewBox="0 0 96 96"><title>icon-bg</title><rect width="96" height="96" fill="none"/><path d="M92,53l4-3.25-3.69-3.54,3.41-3.81-4.19-2.94,2.79-4.29-4.59-2.26,2.1-4.67L87,26.73l1.37-4.93L83.26,21l.6-5.08H78.75l-.18-5.11-5.05.79-1-5L67.67,8.16,66,3.34,61.38,5.63l-2.43-4.5-4.18,3L51.68,0,48,3.56,44.32,0,41.23,4.08l-4.18-3-2.43,4.5L30,3.34,28.33,8.16,23.45,6.61l-1,5-5.05-.79L17.25,16H12.14l.6,5.08-5.06.77L9,26.73,4.17,28.27l2.1,4.67L1.68,35.19l2.79,4.29L.28,42.42l3.41,3.81L0,49.77,4,53,.84,57.08l4.4,2.61L2.79,64.18l4.75,1.9L5.8,70.89l5,1.16-1,5,5.1.38-.21,5.11,5.1-.4.58,5.09,5-1.18L26.69,91l4.74-1.92,2.08,4.68,4.39-2.62,2.77,4.3,3.94-3.27L48,96l3.39-3.83,3.94,3.27,2.77-4.3,4.39,2.63,2.08-4.68L69.31,91l1.34-4.94,5,1.18.58-5.09,5.1.4-.21-5.11,5.1-.38-1-5,5-1.16-1.74-4.81,4.75-1.9-2.45-4.49,4.4-2.61ZM48,88.54A40.62,40.62,0,1,1,88.61,47.93,40.62,40.62,0,0,1,48,88.54Z" fill="#0f4466"/><path d="M48,87.5A39.5,39.5,0,1,0,8.5,48,39.5,39.5,0,0,0,48,87.5" fill="#0f4466"/></svg>